ISO-10303-21;
HEADER;
FILE_DESCRIPTION (( 'STEP AP214' ),
    '1' );
FILE_NAME ('Cover Bottom.STEP',
    '2026-02-09T19:58:57',
    ( '' ),
    ( '' ),
    'SwSTEP 2.0',
    'SolidWorks 2017',
    '' );
FILE_SCHEMA (( 'AUTOMOTIVE_DESIGN' ));
ENDSEC;

DATA;
#1 = CARTESIAN_POINT ( 'NONE',  ( -0.9899999999999997700, 0.1000000000000000100, 1.282999999999999900 ) ) ;
#2 = EDGE_CURVE ( 'NONE', #966, #1249, #1103, .T. ) ;
#3 = VERTEX_POINT ( 'NONE', #154 ) ;
#4 = CARTESIAN_POINT ( 'NONE',  ( 0.9799999999999999800, 0.05000000000000000300, 1.297999999999999200 ) ) ;
#5 = CONICAL_SURFACE ( 'NONE', #34, 0.1120785000000000800, 0.7155849933176751100 ) ;
#6 = DIRECTION ( 'NONE',  ( 0.0000000000000000000, 0.0000000000000000000, 1.000000000000000000 ) ) ;
#7 = FACE_OUTER_BOUND ( 'NONE', #1133, .T. ) ;
#8 = ADVANCED_FACE ( 'NONE', ( #917 ), #1198, .T. ) ;
#9 = VECTOR ( 'NONE', #313, 39.37007874015748100 ) ;
#10 = CARTESIAN_POINT ( 'NONE',  ( 0.9899999999999997700, 0.1600000000000000000, -1.312999999999999900 ) ) ;
#11 = CARTESIAN_POINT ( 'NONE',  ( 0.9799999999999997600, 0.0000000000000000000, -1.323000000000000800 ) ) ;
#12 = AXIS2_PLACEMENT_3D ( 'NONE', #886, #170, #882 ) ;
#13 = DIRECTION ( 'NONE',  ( 0.0000000000000000000, 0.0000000000000000000, -1.000000000000000000 ) ) ;
#14 = DIRECTION ( 'NONE',  ( -0.0000000000000000000, -1.000000000000000000, -0.0000000000000000000 ) ) ;
#15 = ORIENTED_EDGE ( 'NONE', *, *, #669, .T. ) ;
#16 = EDGE_LOOP ( 'NONE', ( #1108, #250, #1012, #140 ) ) ;
#17 = CIRCLE ( 'NONE', #525, 0.07500000000000002500 ) ;
#18 = ADVANCED_FACE ( 'NONE', ( #832 ), #253, .F. ) ;
#19 = AXIS2_PLACEMENT_3D ( 'NONE', #1137, #1135, #939 ) ;
#20 = VECTOR ( 'NONE', #164, 39.37007874015748100 ) ;
#21 = CARTESIAN_POINT ( 'NONE',  ( 0.9799999999999999800, 0.07000000000000000700, 1.282999999999999700 ) ) ;
#22 = FACE_BOUND ( 'NONE', #876, .T. ) ;
#23 = DIRECTION ( 'NONE',  ( 5.463695987328525600E-015, 0.0000000000000000000, -1.000000000000000000 ) ) ;
#24 = ORIENTED_EDGE ( 'NONE', *, *, #1022, .T. ) ;
#25 = EDGE_CURVE ( 'NONE', #892, #583, #883, .T. ) ;
#26 = CARTESIAN_POINT ( 'NONE',  ( 0.9899999999999997700, 0.1000000000000000100, 1.282999999999999900 ) ) ;
#27 = CARTESIAN_POINT ( 'NONE',  ( -0.9899999999999997700, 0.1600000000000000000, -1.312999999999999900 ) ) ;
#28 = VERTEX_POINT ( 'NONE', #456 ) ;
#29 = DIRECTION ( 'NONE',  ( -1.000000000000000000, -0.0000000000000000000, -0.0000000000000000000 ) ) ;
#30 = CIRCLE ( 'NONE', #1253, 0.02999999999999995400 ) ;
#31 = DIRECTION ( 'NONE',  ( -1.000000000000000000, 0.0000000000000000000, -0.0000000000000000000 ) ) ;
#32 = LINE ( 'NONE', #1262, #1052 ) ;
#33 = CIRCLE ( 'NONE', #391, 0.02999999999999995400 ) ;
#34 = AXIS2_PLACEMENT_3D ( 'NONE', #280, #177, #875 ) ;
#35 = LINE ( 'NONE', #791, #1237 ) ;
#36 = DIRECTION ( 'NONE',  ( -0.0000000000000000000, -1.000000000000000000, -0.0000000000000000000 ) ) ;
#37 = CARTESIAN_POINT ( 'NONE',  ( 0.8725000000000001600, -6.829619984160658000E-017, -1.059421499999999800 ) ) ;
#38 = EDGE_CURVE ( 'NONE', #292, #523, #609, .T. ) ;
#39 = CARTESIAN_POINT ( 'NONE',  ( 0.9899999999999997700, 0.1000000000000000100, -1.312999999999999900 ) ) ;
#40 = CARTESIAN_POINT ( 'NONE',  ( -0.9800000000000002000, 0.1600000000000000000, -1.283000000000000100 ) ) ;
#41 = VERTEX_POINT ( 'NONE', #839 ) ;
#42 = ORIENTED_EDGE ( 'NONE', *, *, #656, .T. ) ;
#43 = ORIENTED_EDGE ( 'NONE', *, *, #2, .F. ) ;
#44 = ORIENTED_EDGE ( 'NONE', *, *, #1055, .F. ) ;
#45 = CARTESIAN_POINT ( 'NONE',  ( 0.8725000000000001600, -6.829619984160658000E-017, -1.171500000000000000 ) ) ;
#46 = VECTOR ( 'NONE', #931, 39.37007874015748100 ) ;
#47 = CARTESIAN_POINT ( 'NONE',  ( 0.8724999999999999400, -6.829619984160658000E-017, 1.171500000000000000 ) ) ;
#48 = FACE_OUTER_BOUND ( 'NONE', #312, .T. ) ;
#49 = CARTESIAN_POINT ( 'NONE',  ( 1.054999999999999900, 0.1000000000000000100, 1.297999999999999200 ) ) ;
#50 = CIRCLE ( 'NONE', #338, 0.1120785000000000800 ) ;
#51 = DIRECTION ( 'NONE',  ( -0.0000000000000000000, -1.000000000000000000, -0.0000000000000000000 ) ) ;
#52 = LINE ( 'NONE', #835, #343 ) ;
#53 = CARTESIAN_POINT ( 'NONE',  ( 0.8725000000000001600, 0.07000000000000000700, -1.120271571647135900 ) ) ;
#54 = CARTESIAN_POINT ( 'NONE',  ( 0.9799999999999997600, 0.1000000000000000100, -1.373000000000000900 ) ) ;
#55 = VERTEX_POINT ( 'NONE', #736 ) ;
#56 = AXIS2_PLACEMENT_3D ( 'NONE', #735, #341, #1136 ) ;
#57 = VERTEX_POINT ( 'NONE', #242 ) ;
#58 = CARTESIAN_POINT ( 'NONE',  ( 0.8725000000000001600, 0.07000000000000000700, -1.171500000000000000 ) ) ;
#59 = LINE ( 'NONE', #441, #1064 ) ;
#60 = EDGE_CURVE ( 'NONE', #670, #1014, #282, .T. ) ;
#61 = VECTOR ( 'NONE', #803, 39.37007874015748100 ) ;
#62 = CARTESIAN_POINT ( 'NONE',  ( 0.9800000000000000900, 0.05000000000000000300, 1.372999999999999300 ) ) ;
#63 = FACE_OUTER_BOUND ( 'NONE', #219, .T. ) ;
#64 = EDGE_CURVE ( 'NONE', #421, #353, #52, .T. ) ;
#65 = VERTEX_POINT ( 'NONE', #855 ) ;
#66 = DIRECTION ( 'NONE',  ( 0.0000000000000000000, 0.0000000000000000000, -1.000000000000000000 ) ) ;
#67 = DIRECTION ( 'NONE',  ( 1.000000000000000000, 0.0000000000000000000, -0.0000000000000000000 ) ) ;
#68 = AXIS2_PLACEMENT_3D ( 'NONE', #511, #14, #721 ) ;
#69 = DIRECTION ( 'NONE',  ( 1.000000000000000000, 0.0000000000000000000, 0.0000000000000000000 ) ) ;
#70 = DIRECTION ( 'NONE',  ( -1.000000000000000000, 0.0000000000000000000, 0.0000000000000000000 ) ) ;
#71 = DIRECTION ( 'NONE',  ( 0.0000000000000000000, 0.0000000000000000000, -1.000000000000000000 ) ) ;
#72 = SURFACE_SIDE_STYLE ('',( #185 ) ) ;
#73 = CARTESIAN_POINT ( 'NONE',  ( -0.9799999999999999800, 0.0000000000000000000, 1.322999999999999300 ) ) ;
#74 = VERTEX_POINT ( 'NONE', #40 ) ;
#75 = AXIS2_PLACEMENT_3D ( 'NONE', #473, #269, #480 ) ;
#76 = ORIENTED_EDGE ( 'NONE', *, *, #1132, .T. ) ;
#77 = DIRECTION ( 'NONE',  ( 9.948463196155361700E-017, 0.0000000000000000000, 1.000000000000000000 ) ) ;
#78 = ORIENTED_EDGE ( 'NONE', *, *, #324, .T. ) ;
#79 = CARTESIAN_POINT ( 'NONE',  ( -0.9799999999999999800, 0.05000000000000000300, 1.297999999999999400 ) ) ;
#80 = FACE_OUTER_BOUND ( 'NONE', #325, .T. ) ;
#81 = LINE ( 'NONE', #414, #252 ) ;
#82 = ORIENTED_EDGE ( 'NONE', *, *, #1171, .T. ) ;
#83 =( CONVERSION_BASED_UNIT ( 'INCH', #965 ) LENGTH_UNIT ( ) NAMED_UNIT ( #394 ) );
#84 = DIRECTION ( 'NONE',  ( 0.0000000000000000000, 0.0000000000000000000, 1.000000000000000000 ) ) ;
#85 = CARTESIAN_POINT ( 'NONE',  ( 0.0000000000000000000, 0.0000000000000000000, 0.0000000000000000000 ) ) ;
#86 = DIRECTION ( 'NONE',  ( -1.000000000000000000, -0.0000000000000000000, -0.0000000000000000000 ) ) ;
#87 = CARTESIAN_POINT ( 'NONE',  ( -1.019999999999999800, 0.1000000000000000100, 1.282999999999999900 ) ) ;
#88 = EDGE_CURVE ( 'NONE', #661, #993, #117, .T. ) ;
#89 = ORIENTED_EDGE ( 'NONE', *, *, #64, .T. ) ;
#90 = CARTESIAN_POINT ( 'NONE',  ( 0.9799999999999999800, 0.1000000000000000100, 1.297999999999999200 ) ) ;
#91 = VERTEX_POINT ( 'NONE', #1034 ) ;
#92 = ORIENTED_EDGE ( 'NONE', *, *, #462, .F. ) ;
#93 = CARTESIAN_POINT ( 'NONE',  ( 0.9799999999999999800, 0.1000000000000000100, 1.297999999999999200 ) ) ;
#94 = LINE ( 'NONE', #499, #221 ) ;
#95 = ADVANCED_FACE ( 'NONE', ( #457 ), #652, .F. ) ;
#96 = CARTESIAN_POINT ( 'NONE',  ( -0.9899999999999997700, 0.1000000000000000100, 1.312999999999999900 ) ) ;
#97 = EDGE_LOOP ( 'NONE', ( #304, #434, #1175, #1172, #1221, #431, #599, #364 ) ) ;
#98 = CARTESIAN_POINT ( 'NONE',  ( -0.9800000000000002000, 0.05000000000000000300, -1.298000000000000900 ) ) ;
#99 = AXIS2_PLACEMENT_3D ( 'NONE', #1079, #276, #387 ) ;
#100 = ADVANCED_FACE ( 'NONE', ( #161, #865, #577, #625, #358 ), #536, .F. ) ;
#101 = CARTESIAN_POINT ( 'NONE',  ( -0.8725000000000001600, 0.07000000000000000700, 1.171500000000000000 ) ) ;
#102 = ORIENTED_EDGE ( 'NONE', *, *, #550, .T. ) ;
#103 = CARTESIAN_POINT ( 'NONE',  ( -0.8725000000000001600, 0.07000000000000000700, 1.171500000000000000 ) ) ;
#104 = EDGE_CURVE ( 'NONE', #757, #567, #392, .T. ) ;
#105 = EDGE_LOOP ( 'NONE', ( #257, #1170 ) ) ;
#106 = DIRECTION ( 'NONE',  ( -1.000000000000000000, 0.0000000000000000000, -0.0000000000000000000 ) ) ;
#107 = ORIENTED_EDGE ( 'NONE', *, *, #472, .F. ) ;
#108 = ORIENTED_EDGE ( 'NONE', *, *, #1244, .T. ) ;
#109 = ADVANCED_FACE ( 'NONE', ( #815 ), #1018, .T. ) ;
#110 = AXIS2_PLACEMENT_3D ( 'NONE', #439, #1122, #732 ) ;
#111 = ORIENTED_EDGE ( 'NONE', *, *, #602, .F. ) ;
#112 = DIRECTION ( 'NONE',  ( 1.064632889191061500E-016, 0.0000000000000000000, 1.000000000000000000 ) ) ;
#113 = CARTESIAN_POINT ( 'NONE',  ( 1.004999999999999700, 0.05000000000000000300, -1.373000000000000900 ) ) ;
#114 = CIRCLE ( 'NONE', #971, 0.05000000000000001000 ) ;
#115 = AXIS2_PLACEMENT_3D ( 'NONE', #1104, #1020, #1211 ) ;
#116 = LINE ( 'NONE', #478, #607 ) ;
#117 = LINE ( 'NONE', #849, #720 ) ;
#118 = CARTESIAN_POINT ( 'NONE',  ( -0.9800000000000002000, 0.07000000000000000700, -1.283000000000000100 ) ) ;
#119 = EDGE_CURVE ( 'NONE', #1139, #572, #705, .T. ) ;
#120 = DIRECTION ( 'NONE',  ( 0.0000000000000000000, 1.000000000000000000, 0.0000000000000000000 ) ) ;
#121 = DIRECTION ( 'NONE',  ( -9.948463196155361700E-017, 0.0000000000000000000, -1.000000000000000000 ) ) ;
#122 = ORIENTED_EDGE ( 'NONE', *, *, #748, .F. ) ;
#123 = ORIENTED_EDGE ( 'NONE', *, *, #396, .F. ) ;
#124 = DIRECTION ( 'NONE',  ( -1.000000000000000000, 0.0000000000000000000, 1.064632889191061500E-016 ) ) ;
#125 = EDGE_LOOP ( 'NONE', ( #15, #909, #146, #822 ) ) ;
#126 = DIRECTION ( 'NONE',  ( -0.0000000000000000000, 1.000000000000000000, -0.0000000000000000000 ) ) ;
#127 = EDGE_LOOP ( 'NONE', ( #332, #592, #552, #790 ) ) ;
#128 = AXIS2_PLACEMENT_3D ( 'NONE', #866, #655, #267 ) ;
#129 = CONICAL_SURFACE ( 'NONE', #1028, 0.1120785000000000800, 0.7155849933176751100 ) ;
#130 = CARTESIAN_POINT ( 'NONE',  ( -1.054999999999999900, 0.05000000000000000300, 1.322999999999999300 ) ) ;
#131 = VECTOR ( 'NONE', #1040, 39.37007874015748100 ) ;
#132 = VECTOR ( 'NONE', #71, 39.37007874015748100 ) ;
#133 = PRODUCT ( 'Cover Bottom', 'Cover Bottom', '', ( #375 ) ) ;
#134 = DIRECTION ( 'NONE',  ( -0.0000000000000000000, 1.000000000000000000, -0.0000000000000000000 ) ) ;
#135 = EDGE_CURVE ( 'NONE', #374, #1139, #178, .T. ) ;
#136 = DIRECTION ( 'NONE',  ( -0.0000000000000000000, 1.000000000000000000, -0.0000000000000000000 ) ) ;
#137 = AXIS2_PLACEMENT_3D ( 'NONE', #45, #51, #329 ) ;
#138 = VERTEX_POINT ( 'NONE', #1165 ) ;
#139 = PLANE ( 'NONE',  #474 ) ;
#140 = ORIENTED_EDGE ( 'NONE', *, *, #854, .F. ) ;
#141 = DIRECTION ( 'NONE',  ( 0.0000000000000000000, 0.0000000000000000000, 1.000000000000000000 ) ) ;
#142 = ORIENTED_EDGE ( 'NONE', *, *, #550, .F. ) ;
#143 = CARTESIAN_POINT ( 'NONE',  ( -0.9799999999999999800, 0.07000000000000000700, 1.282999999999999700 ) ) ;
#144 = VECTOR ( 'NONE', #296, 39.37007874015748100 ) ;
#145 = CARTESIAN_POINT ( 'NONE',  ( 0.8724999999999999400, -6.829619984160658000E-017, 1.171500000000000000 ) ) ;
#146 = ORIENTED_EDGE ( 'NONE', *, *, #286, .F. ) ;
#147 = CARTESIAN_POINT ( 'NONE',  ( 0.9799999999999999800, 0.07000000000000000700, 1.282999999999999700 ) ) ;
#148 = CARTESIAN_POINT ( 'NONE',  ( -1.054999999999999900, 0.1000000000000000100, 1.372999999999999300 ) ) ;
#149 = CARTESIAN_POINT ( 'NONE',  ( -1.019999999999999800, 0.1600000000000000000, -1.312999999999999900 ) ) ;
#150 = VERTEX_POINT ( 'NONE', #360 ) ;
#151 = AXIS2_PLACEMENT_3D ( 'NONE', #47, #36, #641 ) ;
#152 = ORIENTED_EDGE ( 'NONE', *, *, #1275, .F. ) ;
#153 = ORIENTED_EDGE ( 'NONE', *, *, #1214, .T. ) ;
#154 = CARTESIAN_POINT ( 'NONE',  ( -0.8724999999999999400, -6.829619984160658000E-017, -1.283578500000000000 ) ) ;
#155 = FACE_OUTER_BOUND ( 'NONE', #860, .T. ) ;
#156 = VERTEX_POINT ( 'NONE', #1158 ) ;
#157 = EDGE_CURVE ( 'NONE', #572, #316, #1270, .T. ) ;
#158 = LINE ( 'NONE', #21, #862 ) ;
#159 = CARTESIAN_POINT ( 'NONE',  ( 0.9799999999999999800, 0.0000000000000000000, 1.322999999999999300 ) ) ;
#160 = DIRECTION ( 'NONE',  ( 0.0000000000000000000, 0.0000000000000000000, 1.000000000000000000 ) ) ;
#161 = FACE_OUTER_BOUND ( 'NONE', #97, .T. ) ;
#162 = DIRECTION ( 'NONE',  ( 2.731847993664262800E-015, 0.0000000000000000000, 1.000000000000000000 ) ) ;
#163 = CARTESIAN_POINT ( 'NONE',  ( -0.9800000000000002000, 0.1000000000000000100, -1.298000000000000900 ) ) ;
#164 = DIRECTION ( 'NONE',  ( 0.0000000000000000000, 0.0000000000000000000, -1.000000000000000000 ) ) ;
#165 = EDGE_LOOP ( 'NONE', ( #429, #1059, #78, #203 ) ) ;
#166 = AXIS2_PLACEMENT_3D ( 'NONE', #113, #905, #918 ) ;
#167 = DIRECTION ( 'NONE',  ( 0.0000000000000000000, -1.000000000000000000, 0.0000000000000000000 ) ) ;
#168 = CLOSED_SHELL ( 'NONE', ( #707, #95, #18, #899, #673, #1272, #200, #416, #1162, #100, #582, #687, #692, #379, #857, #781, #1261, #1073, #586, #503, #1005, #767, #1179, #184, #109, #497, #904, #272, #384, #1085, #455, #813, #8, #371, #308, #193, #775, #1090, #788, #1099 ) ) ;
#169 = ORIENTED_EDGE ( 'NONE', *, *, #157, .F. ) ;
#170 = DIRECTION ( 'NONE',  ( -0.0000000000000000000, -1.000000000000000000, -0.0000000000000000000 ) ) ;
#171 = EDGE_LOOP ( 'NONE', ( #808, #526, #770, #963 ) ) ;
#172 = EDGE_CURVE ( 'NONE', #318, #353, #190, .T. ) ;
#173 = LINE ( 'NONE', #1010, #683 ) ;
#174 = CARTESIAN_POINT ( 'NONE',  ( -0.8724999999999999400, 0.07000000000000000700, -1.120271571647135900 ) ) ;
#175 = VECTOR ( 'NONE', #136, 39.37007874015748100 ) ;
#176 = CYLINDRICAL_SURFACE ( 'NONE', #192, 0.05000000000000001000 ) ;
#177 = DIRECTION ( 'NONE',  ( -0.0000000000000000000, -1.000000000000000000, -0.0000000000000000000 ) ) ;
#178 = CIRCLE ( 'NONE', #345, 0.05000000000000001000 ) ;
#179 = DIRECTION ( 'NONE',  ( -0.0000000000000000000, 1.000000000000000000, -0.0000000000000000000 ) ) ;
#180 = EDGE_CURVE ( 'NONE', #1239, #670, #1210, .T. ) ;
#181 = DIRECTION ( 'NONE',  ( -0.0000000000000000000, 0.0000000000000000000, 1.000000000000000000 ) ) ;
#182 = EDGE_LOOP ( 'NONE', ( #1027, #900, #1266, #841 ) ) ;
#183 = CARTESIAN_POINT ( 'NONE',  ( -1.019999999999999800, 0.1600000000000000000, 1.282999999999999900 ) ) ;
#184 = ADVANCED_FACE ( 'NONE', ( #1016 ), #1226, .F. ) ;
#185 = SURFACE_STYLE_FILL_AREA ( #273 ) ;
#186 = EDGE_LOOP ( 'NONE', ( #1078, #350, #76, #275 ) ) ;
#187 = LINE ( 'NONE', #672, #20 ) ;
#188 = DIRECTION ( 'NONE',  ( -0.0000000000000000000, -1.000000000000000000, -0.0000000000000000000 ) ) ;
#189 = TOROIDAL_SURFACE ( 'NONE', #444, 0.02499999999999999100, 0.05000000000000000300 ) ;
#190 = LINE ( 'NONE', #972, #944 ) ;
#191 = CARTESIAN_POINT ( 'NONE',  ( -0.9800000000000002000, 0.0000000000000000000, -1.298000000000000900 ) ) ;
#192 = AXIS2_PLACEMENT_3D ( 'NONE', #595, #897, #6 ) ;
#193 = ADVANCED_FACE ( 'NONE', ( #1101 ), #189, .T. ) ;
#194 = CARTESIAN_POINT ( 'NONE',  ( 1.004999999999999900, 0.0000000000000000000, 1.297999999999999200 ) ) ;
#195 = UNCERTAINTY_MEASURE_WITH_UNIT (LENGTH_MEASURE( 1.000000000000000100E-005 ), #929, 'distance_accuracy_value', 'NONE');
#196 =( GEOMETRIC_REPRESENTATION_CONTEXT ( 3 ) GLOBAL_UNCERTAINTY_ASSIGNED_CONTEXT ( ( #1176 ) ) GLOBAL_UNIT_ASSIGNED_CONTEXT ( ( #885, #677, #671 ) ) REPRESENTATION_CONTEXT ( 'NONE', 'WORKASPACE' ) );
#197 = DIRECTION ( 'NONE',  ( -1.000000000000000000, 0.0000000000000000000, 0.0000000000000000000 ) ) ;
#198 = ORIENTED_EDGE ( 'NONE', *, *, #823, .T. ) ;
#199 = EDGE_CURVE ( 'NONE', #1014, #1267, #973, .T. ) ;
#200 = ADVANCED_FACE ( 'NONE', ( #1209 ), #657, .F. ) ;
#201 = ORIENTED_EDGE ( 'NONE', *, *, #243, .T. ) ;
#202 = AXIS2_PLACEMENT_3D ( 'NONE', #163, #167, #961 ) ;
#203 = ORIENTED_EDGE ( 'NONE', *, *, #487, .T. ) ;
#204 = CARTESIAN_POINT ( 'NONE',  ( -0.9800000000000002000, 0.1600000000000000000, -1.283000000000000100 ) ) ;
#205 = ORIENTED_EDGE ( 'NONE', *, *, #1171, .F. ) ;
#206 = LINE ( 'NONE', #319, #940 ) ;
#207 = FACE_OUTER_BOUND ( 'NONE', #1041, .T. ) ;
#208 = CARTESIAN_POINT ( 'NONE',  ( -0.8725000000000001600, -6.829619984160658000E-017, 1.059421499999999800 ) ) ;
#209 = FACE_OUTER_BOUND ( 'NONE', #402, .T. ) ;
#210 = DIRECTION ( 'NONE',  ( 0.0000000000000000000, 0.0000000000000000000, 1.000000000000000000 ) ) ;
#211 = AXIS2_PLACEMENT_3D ( 'NONE', #887, #197, #590 ) ;
#212 = CARTESIAN_POINT ( 'NONE',  ( 0.9799999999999999800, 0.05000000000000000300, 1.297999999999999200 ) ) ;
#213 = DIRECTION ( 'NONE',  ( 1.000000000000000000, -0.0000000000000000000, 0.0000000000000000000 ) ) ;
#214 = VERTEX_POINT ( 'NONE', #174 ) ;
#215 = EDGE_CURVE ( 'NONE', #484, #711, #1130, .T. ) ;
#216 = ORIENTED_EDGE ( 'NONE', *, *, #895, .F. ) ;
#217 = CARTESIAN_POINT ( 'NONE',  ( -0.9899999999999997700, 0.1600000000000000000, 1.282999999999999900 ) ) ;
#218 = VECTOR ( 'NONE', #134, 39.37007874015748100 ) ;
#219 = EDGE_LOOP ( 'NONE', ( #846, #584, #856, #585, #872, #492, #1065, #676 ) ) ;
#220 = DIRECTION ( 'NONE',  ( 1.000000000000000000, 0.0000000000000000000, -9.948463196155361700E-017 ) ) ;
#221 = VECTOR ( 'NONE', #1091, 39.37007874015748100 ) ;
#222 = CIRCLE ( 'NONE', #211, 0.05000000000000001000 ) ;
#223 = DIRECTION ( 'NONE',  ( 0.0000000000000000000, -0.7547095802227720100, -0.6560590289905072800 ) ) ;
#224 = EDGE_CURVE ( 'NONE', #1233, #937, #562, .T. ) ;
#225 = FILL_AREA_STYLE ('',( #1128 ) ) ;
#226 = AXIS2_PLACEMENT_3D ( 'NONE', #1045, #650, #1236 ) ;
#227 = SURFACE_SIDE_STYLE ('',( #498 ) ) ;
#228 = DIRECTION ( 'NONE',  ( 0.0000000000000000000, 0.0000000000000000000, -1.000000000000000000 ) ) ;
#229 = ORIENTED_EDGE ( 'NONE', *, *, #734, .F. ) ;
#230 = PRODUCT_DEFINITION_SHAPE ( 'NONE', 'NONE',  #746 ) ;
#231 = EDGE_LOOP ( 'NONE', ( #742, #233, #688, #336 ) ) ;
#232 = CARTESIAN_POINT ( 'NONE',  ( -0.9799999999999999800, 0.07000000000000000700, 1.282999999999999700 ) ) ;
#233 = ORIENTED_EDGE ( 'NONE', *, *, #898, .T. ) ;
#234 = VERTEX_POINT ( 'NONE', #62 ) ;
#235 = AXIS2_PLACEMENT_3D ( 'NONE', #773, #1264, #765 ) ;
#236 = CYLINDRICAL_SURFACE ( 'NONE', #507, 0.05000000000000001000 ) ;
#237 = CARTESIAN_POINT ( 'NONE',  ( 1.054999999999999700, 0.05000000000000000300, -1.298000000000000900 ) ) ;
#238 = FACE_OUTER_BOUND ( 'NONE', #1021, .T. ) ;
#239 =( NAMED_UNIT ( * ) PLANE_ANGLE_UNIT ( ) SI_UNIT ( $, .RADIAN. ) );
#240 = FACE_BOUND ( 'NONE', #1121, .T. ) ;
#241 = STYLED_ITEM ( 'NONE', ( #266 ), #1243 ) ;
#242 = CARTESIAN_POINT ( 'NONE',  ( -1.054999999999999900, 0.1000000000000000100, 1.297999999999999200 ) ) ;
#243 = EDGE_CURVE ( 'NONE', #752, #234, #956, .T. ) ;
#244 = DIRECTION ( 'NONE',  ( 1.000000000000000000, 0.0000000000000000000, 0.0000000000000000000 ) ) ;
#245 = DIRECTION ( 'NONE',  ( -0.0000000000000000000, 1.000000000000000000, -0.0000000000000000000 ) ) ;
#246 = PLANE ( 'NONE',  #1051 ) ;
#247 = EDGE_CURVE ( 'NONE', #893, #383, #850, .T. ) ;
#248 = ORIENTED_EDGE ( 'NONE', *, *, #797, .F. ) ;
#249 = CARTESIAN_POINT ( 'NONE',  ( 0.9799999999999999800, 0.05000000000000000300, 1.322999999999999100 ) ) ;
#250 = ORIENTED_EDGE ( 'NONE', *, *, #348, .F. ) ;
#251 = CIRCLE ( 'NONE', #818, 0.02499999999999987000 ) ;
#252 = VECTOR ( 'NONE', #921, 39.37007874015748100 ) ;
#253 = CONICAL_SURFACE ( 'NONE', #226, 0.1120785000000000800, 0.7155849933176751100 ) ;
#254 = DIRECTION ( 'NONE',  ( 1.000000000000000000, 0.0000000000000000000, 0.0000000000000000000 ) ) ;
#255 = PLANE ( 'NONE',  #786 ) ;
#256 = PRESENTATION_LAYER_ASSIGNMENT (  '', '', ( #653 ) ) ;
#257 = ORIENTED_EDGE ( 'NONE', *, *, #487, .F. ) ;
#258 = PRESENTATION_LAYER_ASSIGNMENT (  '', '', ( #241 ) ) ;
#259 = DIRECTION ( 'NONE',  ( -0.0000000000000000000, -1.000000000000000000, -0.0000000000000000000 ) ) ;
#260 = ORIENTED_EDGE ( 'NONE', *, *, #60, .T. ) ;
#261 = EDGE_CURVE ( 'NONE', #892, #425, #298, .T. ) ;
#262 = ORIENTED_EDGE ( 'NONE', *, *, #898, .F. ) ;
#263 = VECTOR ( 'NONE', #426, 39.37007874015748100 ) ;
#264 = EDGE_CURVE ( 'NONE', #1249, #572, #531, .T. ) ;
#265 = VECTOR ( 'NONE', #284, 39.37007874015748100 ) ;
#266 = PRESENTATION_STYLE_ASSIGNMENT (( #563 ) ) ;
#267 = DIRECTION ( 'NONE',  ( 0.0000000000000000000, 0.0000000000000000000, 1.000000000000000000 ) ) ;
#268 = CIRCLE ( 'NONE', #564, 0.05000000000000001000 ) ;
#269 = DIRECTION ( 'NONE',  ( 1.000000000000000000, 0.0000000000000000000, -1.064632889191061500E-016 ) ) ;
#270 = DIRECTION ( 'NONE',  ( 0.0000000000000000000, 0.0000000000000000000, -1.000000000000000000 ) ) ;
#271 = CARTESIAN_POINT ( 'NONE',  ( 0.9799999999999997600, 0.05000000000000000300, -1.323000000000000800 ) ) ;
#272 = ADVANCED_FACE ( 'NONE', ( #373 ), #777, .T. ) ;
#273 = FILL_AREA_STYLE ('',( #1150 ) ) ;
#274 = VERTEX_POINT ( 'NONE', #285 ) ;
#275 = ORIENTED_EDGE ( 'NONE', *, *, #464, .F. ) ;
#276 = DIRECTION ( 'NONE',  ( 0.0000000000000000000, -1.000000000000000000, 0.0000000000000000000 ) ) ;
#277 = FACE_OUTER_BOUND ( 'NONE', #458, .T. ) ;
#278 =( NAMED_UNIT ( * ) SI_UNIT ( $, .STERADIAN. ) SOLID_ANGLE_UNIT ( ) );
#279 = FACE_BOUND ( 'NONE', #665, .T. ) ;
#280 = CARTESIAN_POINT ( 'NONE',  ( 0.8724999999999999400, -6.829619984160658000E-017, 1.171500000000000000 ) ) ;
#281 = AXIS2_PLACEMENT_3D ( 'NONE', #467, #664, #459 ) ;
#282 = CIRCLE ( 'NONE', #1259, 0.02999999999999995400 ) ;
#283 = CARTESIAN_POINT ( 'NONE',  ( -1.055000000000000200, 0.05000000000000000300, -1.298000000000000900 ) ) ;
#284 = DIRECTION ( 'NONE',  ( 1.000000000000000000, 0.0000000000000000000, 0.0000000000000000000 ) ) ;
#285 = CARTESIAN_POINT ( 'NONE',  ( -1.005000000000000100, 0.0000000000000000000, -1.298000000000000900 ) ) ;
#286 = EDGE_CURVE ( 'NONE', #757, #752, #222, .T. ) ;
#287 = ORIENTED_EDGE ( 'NONE', *, *, #378, .F. ) ;
#288 = DIRECTION ( 'NONE',  ( 0.0000000000000000000, 0.0000000000000000000, -1.000000000000000000 ) ) ;
#289 = ORIENTED_EDGE ( 'NONE', *, *, #172, .F. ) ;
#290 = DIRECTION ( 'NONE',  ( 0.0000000000000000000, 0.0000000000000000000, 1.000000000000000000 ) ) ;
#291 = LINE ( 'NONE', #1218, #368 ) ;
#292 = VERTEX_POINT ( 'NONE', #776 ) ;
#293 = ORIENTED_EDGE ( 'NONE', *, *, #119, .F. ) ;
#294 = CARTESIAN_POINT ( 'NONE',  ( 0.0000000000000000000, 0.1600000000000000000, 0.0000000000000000000 ) ) ;
#295 = FACE_OUTER_BOUND ( 'NONE', #125, .T. ) ;
#296 = DIRECTION ( 'NONE',  ( 0.0000000000000000000, -0.7547095802227720100, -0.6560590289905072800 ) ) ;
#297 = VECTOR ( 'NONE', #633, 39.37007874015748100 ) ;
#298 = LINE ( 'NONE', #1145, #1161 ) ;
#299 = CARTESIAN_POINT ( 'NONE',  ( -0.8724999999999999400, -6.829619984160658000E-017, -1.171500000000000000 ) ) ;
#300 = AXIS2_PLACEMENT_3D ( 'NONE', #369, #660, #66 ) ;
#301 = CARTESIAN_POINT ( 'NONE',  ( 0.9799999999999996500, 0.1600000000000000000, -1.283000000000000100 ) ) ;
#302 = CARTESIAN_POINT ( 'NONE',  ( -1.055000000000000200, 0.1000000000000000100, -1.373000000000000900 ) ) ;
#303 = CARTESIAN_POINT ( 'NONE',  ( -1.004999999999999900, 0.05000000000000000300, 1.297999999999999400 ) ) ;
#304 = ORIENTED_EDGE ( 'NONE', *, *, #976, .T. ) ;
#305 = AXIS2_PLACEMENT_3D ( 'NONE', #475, #1149, #873 ) ;
#306 = ORIENTED_EDGE ( 'NONE', *, *, #1107, .F. ) ;
#307 = ORIENTED_EDGE ( 'NONE', *, *, #804, .T. ) ;
#308 = ADVANCED_FACE ( 'NONE', ( #915 ), #176, .T. ) ;
#309 = ORIENTED_EDGE ( 'NONE', *, *, #799, .F. ) ;
#310 = CIRCLE ( 'NONE', #1035, 0.05122842835286414700 ) ;
#311 = EDGE_CURVE ( 'NONE', #740, #934, #730, .T. ) ;
#312 = EDGE_LOOP ( 'NONE', ( #1058, #678, #205, #198 ) ) ;
#313 = DIRECTION ( 'NONE',  ( -0.0000000000000000000, 1.000000000000000000, -0.0000000000000000000 ) ) ;
#314 = EDGE_LOOP ( 'NONE', ( #1046, #695, #957, #1206 ) ) ;
#315 = DIRECTION ( 'NONE',  ( 0.0000000000000000000, 0.0000000000000000000, 1.000000000000000000 ) ) ;
#316 = VERTEX_POINT ( 'NONE', #194 ) ;
#317 = AXIS2_PLACEMENT_3D ( 'NONE', #628, #327, #31 ) ;
#318 = VERTEX_POINT ( 'NONE', #87 ) ;
#319 = CARTESIAN_POINT ( 'NONE',  ( 0.9799999999999996500, 0.1600000000000000000, -1.283000000000000100 ) ) ;
#320 = VECTOR ( 'NONE', #245, 39.37007874015748100 ) ;
#321 = DIRECTION ( 'NONE',  ( 0.0000000000000000000, 0.0000000000000000000, -1.000000000000000000 ) ) ;
#322 = LINE ( 'NONE', #928, #61 ) ;
#323 = VECTOR ( 'NONE', #254, 39.37007874015748100 ) ;
#324 = EDGE_CURVE ( 'NONE', #1163, #523, #704, .T. ) ;
#325 = EDGE_LOOP ( 'NONE', ( #779, #938, #1219, #1141 ) ) ;
#326 = EDGE_CURVE ( 'NONE', #906, #318, #638, .T. ) ;
#327 = DIRECTION ( 'NONE',  ( 0.0000000000000000000, 0.0000000000000000000, -1.000000000000000000 ) ) ;
#328 =( LENGTH_UNIT ( ) NAMED_UNIT ( * ) SI_UNIT ( $, .METRE. ) );
#329 = DIRECTION ( 'NONE',  ( 0.0000000000000000000, 0.0000000000000000000, -1.000000000000000000 ) ) ;
#330 = CARTESIAN_POINT ( 'NONE',  ( -0.9800000000000002000, 0.07000000000000000700, -1.283000000000000100 ) ) ;
#331 = EDGE_CURVE ( 'NONE', #403, #74, #116, .T. ) ;
#332 = ORIENTED_EDGE ( 'NONE', *, *, #135, .T. ) ;
#333 = EDGE_LOOP ( 'NONE', ( #1086, #289, #404, #463 ) ) ;
#334 = DIRECTION ( 'NONE',  ( 0.0000000000000000000, 0.0000000000000000000, -1.000000000000000000 ) ) ;
#335 = VERTEX_POINT ( 'NONE', #283 ) ;
#336 = ORIENTED_EDGE ( 'NONE', *, *, #513, .T. ) ;
#337 = EDGE_LOOP ( 'NONE', ( #1201, #107 ) ) ;
#338 = AXIS2_PLACEMENT_3D ( 'NONE', #611, #702, #334 ) ;
#339 = DIRECTION ( 'NONE',  ( -0.0000000000000000000, 1.000000000000000000, -0.0000000000000000000 ) ) ;
#340 = VECTOR ( 'NONE', #559, 39.37007874015748100 ) ;
#341 = DIRECTION ( 'NONE',  ( 1.000000000000000000, -0.0000000000000000000, 0.0000000000000000000 ) ) ;
#342 = CIRCLE ( 'NONE', #520, 0.07499999999999988600 ) ;
#343 = VECTOR ( 'NONE', #1038, 39.37007874015748100 ) ;
#344 = DIRECTION ( 'NONE',  ( 0.0000000000000000000, -1.000000000000000000, 0.0000000000000000000 ) ) ;
#345 = AXIS2_PLACEMENT_3D ( 'NONE', #271, #1053, #1152 ) ;
#346 = CARTESIAN_POINT ( 'NONE',  ( -0.8725000000000001600, -6.829619984160658000E-017, 1.283578500000000000 ) ) ;
#347 = ORIENTED_EDGE ( 'NONE', *, *, #397, .T. ) ;
#348 = EDGE_CURVE ( 'NONE', #740, #335, #469, .T. ) ;
#349 = DIRECTION ( 'NONE',  ( -9.948463196155361700E-017, 0.0000000000000000000, -1.000000000000000000 ) ) ;
#350 = ORIENTED_EDGE ( 'NONE', *, *, #2, .T. ) ;
#351 = EDGE_CURVE ( 'NONE', #906, #386, #35, .T. ) ;
#352 = ORIENTED_EDGE ( 'NONE', *, *, #778, .F. ) ;
#353 = VERTEX_POINT ( 'NONE', #183 ) ;
#354 = DIRECTION ( 'NONE',  ( 0.0000000000000000000, 0.0000000000000000000, -1.000000000000000000 ) ) ;
#355 = CIRCLE ( 'NONE', #674, 0.05122842835286414700 ) ;
#356 = EDGE_LOOP ( 'NONE', ( #519, #698, #727, #1155 ) ) ;
#357 = CIRCLE ( 'NONE', #1168, 0.07499999999999988600 ) ;
#358 = FACE_BOUND ( 'NONE', #807, .T. ) ;
#359 = DIRECTION ( 'NONE',  ( 0.0000000000000000000, 0.0000000000000000000, -1.000000000000000000 ) ) ;
#360 = CARTESIAN_POINT ( 'NONE',  ( -0.8725000000000001600, 0.07000000000000000700, 1.222728428352864100 ) ) ;
#361 = CARTESIAN_POINT ( 'NONE',  ( 0.8724999999999999400, 0.07000000000000000700, 1.120271571647135900 ) ) ;
#362 = AXIS2_PLACEMENT_3D ( 'NONE', #979, #377, #1167 ) ;
#363 = DIRECTION ( 'NONE',  ( 1.000000000000000000, -0.0000000000000000000, 0.0000000000000000000 ) ) ;
#364 = ORIENTED_EDGE ( 'NONE', *, *, #104, .T. ) ;
#365 = ORIENTED_EDGE ( 'NONE', *, *, #553, .T. ) ;
#366 = CARTESIAN_POINT ( 'NONE',  ( -1.055000000000000200, 0.1000000000000000100, -1.373000000000000900 ) ) ;
#367 = ORIENTED_EDGE ( 'NONE', *, *, #726, .F. ) ;
#368 = VECTOR ( 'NONE', #339, 39.37007874015748100 ) ;
#369 = CARTESIAN_POINT ( 'NONE',  ( 0.9899999999999997700, 0.1600000000000000000, 1.282999999999999900 ) ) ;
#370 = CIRCLE ( 'NONE', #930, 0.05000000000000001000 ) ;
#371 = ADVANCED_FACE ( 'NONE', ( #991 ), #410, .T. ) ;
#372 = CARTESIAN_POINT ( 'NONE',  ( 1.004999999999999900, 0.0000000000000000000, -9.998205512136138100E-017 ) ) ;
#373 = FACE_OUTER_BOUND ( 'NONE', #621, .T. ) ;
#374 = VERTEX_POINT ( 'NONE', #482 ) ;
#375 = PRODUCT_CONTEXT ( 'NONE', #760, 'mechanical' ) ;
#376 = DIRECTION ( 'NONE',  ( 0.0000000000000000000, 0.0000000000000000000, 1.000000000000000000 ) ) ;
#377 = DIRECTION ( 'NONE',  ( 9.948463196155362900E-017, -0.0000000000000000000, 1.000000000000000000 ) ) ;
#378 = EDGE_CURVE ( 'NONE', #432, #490, #342, .T. ) ;
#379 = ADVANCED_FACE ( 'NONE', ( #454 ), #486, .F. ) ;
#380 = CARTESIAN_POINT ( 'NONE',  ( -1.055000000000000200, 0.05000000000000000300, -1.373000000000000900 ) ) ;
#381 = ORIENTED_EDGE ( 'NONE', *, *, #878, .T. ) ;
#382 = CARTESIAN_POINT ( 'NONE',  ( 1.054999999999999700, 0.1000000000000000100, -1.373000000000000900 ) ) ;
#383 = VERTEX_POINT ( 'NONE', #675 ) ;
#384 = ADVANCED_FACE ( 'NONE', ( #1054 ), #1196, .T. ) ;
#385 = LINE ( 'NONE', #538, #320 ) ;
#386 = VERTEX_POINT ( 'NONE', #1017 ) ;
#387 = DIRECTION ( 'NONE',  ( 0.0000000000000000000, 0.0000000000000000000, -1.000000000000000000 ) ) ;
#388 = LINE ( 'NONE', #380, #453 ) ;
#389 = LINE ( 'NONE', #346, #1083 ) ;
#390 = DIRECTION ( 'NONE',  ( 0.0000000000000000000, 1.000000000000000000, 0.0000000000000000000 ) ) ;
#391 = AXIS2_PLACEMENT_3D ( 'NONE', #747, #858, #359 ) ;
#392 = CIRCLE ( 'NONE', #281, 0.02499999999999987000 ) ;
#393 = CARTESIAN_POINT ( 'NONE',  ( -0.9800000000000002000, 0.1000000000000000100, -1.373000000000000900 ) ) ;
#394 = DIMENSIONAL_EXPONENTS ( 1.000000000000000000, 0.0000000000000000000, 0.0000000000000000000, 0.0000000000000000000, 0.0000000000000000000, 0.0000000000000000000, 0.0000000000000000000 ) ;
#395 =( GEOMETRIC_REPRESENTATION_CONTEXT ( 3 ) GLOBAL_UNCERTAINTY_ASSIGNED_CONTEXT ( ( #557 ) ) GLOBAL_UNIT_ASSIGNED_CONTEXT ( ( #83, #569, #278 ) ) REPRESENTATION_CONTEXT ( 'NONE', 'WORKASPACE' ) );
#396 = EDGE_CURVE ( 'NONE', #567, #65, #268, .T. ) ;
#397 = EDGE_CURVE ( 'NONE', #150, #1246, #310, .T. ) ;
#398 = VERTEX_POINT ( 'NONE', #615 ) ;
#399 = CARTESIAN_POINT ( 'NONE',  ( 0.9799999999999996500, 0.07000000000000000700, -1.283000000000000100 ) ) ;
#400 = VERTEX_POINT ( 'NONE', #916 ) ;
#401 = DIRECTION ( 'NONE',  ( -1.000000000000000000, 0.0000000000000000000, 0.0000000000000000000 ) ) ;
#402 = EDGE_LOOP ( 'NONE', ( #1146, #792, #1000, #367 ) ) ;
#403 = VERTEX_POINT ( 'NONE', #301 ) ;
#404 = ORIENTED_EDGE ( 'NONE', *, *, #326, .F. ) ;
#405 = CIRCLE ( 'NONE', #12, 0.1120785000000000800 ) ;
#406 = COLOUR_RGB ( '',0.7529411764705882200, 0.7529411764705882200, 0.7529411764705882200 ) ;
#407 = EDGE_CURVE ( 'NONE', #937, #670, #718, .T. ) ;
#408 = DIRECTION ( 'NONE',  ( 0.0000000000000000000, 0.0000000000000000000, 1.000000000000000000 ) ) ;
#409 = VECTOR ( 'NONE', #820, 39.37007874015748100 ) ;
#410 = CYLINDRICAL_SURFACE ( 'NONE', #362, 0.05000000000000001000 ) ;
#411 = ORIENTED_EDGE ( 'NONE', *, *, #1047, .T. ) ;
#412 = CARTESIAN_POINT ( 'NONE',  ( -0.9799999999999999800, 0.1600000000000000000, 1.282999999999999700 ) ) ;
#413 = AXIS2_PLACEMENT_3D ( 'NONE', #722, #126, #321 ) ;
#414 = CARTESIAN_POINT ( 'NONE',  ( 1.054999999999999700, 0.1000000000000000100, -1.373000000000000900 ) ) ;
#415 = CARTESIAN_POINT ( 'NONE',  ( 1.019999999999999800, 0.1000000000000000100, 1.282999999999999900 ) ) ;
#416 = ADVANCED_FACE ( 'NONE', ( #209 ), #817, .F. ) ;
#417 = AXIS2_PLACEMENT_3D ( 'NONE', #366, #861, #67 ) ;
#418 = DIRECTION ( 'NONE',  ( -0.0000000000000000000, -1.000000000000000000, -0.0000000000000000000 ) ) ;
#419 = ORIENTED_EDGE ( 'NONE', *, *, #1080, .F. ) ;
#420 = ORIENTED_EDGE ( 'NONE', *, *, #215, .F. ) ;
#421 = VERTEX_POINT ( 'NONE', #504 ) ;
#422 = EDGE_CURVE ( 'NONE', #74, #1096, #440, .T. ) ;
#423 = CIRCLE ( 'NONE', #753, 0.05122842835286414700 ) ;
#424 = LINE ( 'NONE', #430, #297 ) ;
#425 = VERTEX_POINT ( 'NONE', #812 ) ;
#426 = DIRECTION ( 'NONE',  ( -0.0000000000000000000, 1.000000000000000000, -0.0000000000000000000 ) ) ;
#427 = CARTESIAN_POINT ( 'NONE',  ( 0.9800000000000000900, 0.1000000000000000100, 1.372999999999999300 ) ) ;
#428 = DIRECTION ( 'NONE',  ( 0.0000000000000000000, 0.0000000000000000000, 1.000000000000000000 ) ) ;
#429 = ORIENTED_EDGE ( 'NONE', *, *, #534, .F. ) ;
#430 = CARTESIAN_POINT ( 'NONE',  ( -1.019999999999999800, 0.1000000000000000100, 1.312999999999999900 ) ) ;
#431 = ORIENTED_EDGE ( 'NONE', *, *, #778, .T. ) ;
#432 = VERTEX_POINT ( 'NONE', #806 ) ;
#433 = CARTESIAN_POINT ( 'NONE',  ( -0.9799999999999999800, 0.1600000000000000000, 1.282999999999999700 ) ) ;
#434 = ORIENTED_EDGE ( 'NONE', *, *, #854, .T. ) ;
#435 = ORIENTED_EDGE ( 'NONE', *, *, #988, .F. ) ;
#436 = PLANE ( 'NONE',  #317 ) ;
#437 = FACE_OUTER_BOUND ( 'NONE', #632, .T. ) ;
#438 = CIRCLE ( 'NONE', #235, 0.02499999999999987000 ) ;
#439 = CARTESIAN_POINT ( 'NONE',  ( 0.0000000000000000000, 0.0000000000000000000, 0.0000000000000000000 ) ) ;
#440 = LINE ( 'NONE', #204, #576 ) ;
#441 = CARTESIAN_POINT ( 'NONE',  ( 0.0000000000000000000, 0.0000000000000000000, 1.322999999999999300 ) ) ;
#442 = ORIENTED_EDGE ( 'NONE', *, *, #422, .T. ) ;
#443 = CARTESIAN_POINT ( 'NONE',  ( 0.8724999999999999400, -6.829619984160658000E-017, 1.283578500000000000 ) ) ;
#444 = AXIS2_PLACEMENT_3D ( 'NONE', #1260, #977, #1250 ) ;
#445 = CARTESIAN_POINT ( 'NONE',  ( -0.8724999999999999400, 0.07000000000000000700, -1.222728428352864100 ) ) ;
#446 = DIRECTION ( 'NONE',  ( 0.0000000000000000000, 0.0000000000000000000, -1.000000000000000000 ) ) ;
#447 = EDGE_CURVE ( 'NONE', #28, #335, #1031, .T. ) ;
#448 = PLANE ( 'NONE',  #56 ) ;
#449 = ORIENTED_EDGE ( 'NONE', *, *, #553, .F. ) ;
#450 = DIRECTION ( 'NONE',  ( -1.064632889191061500E-016, -0.0000000000000000000, -1.000000000000000000 ) ) ;
#451 = LINE ( 'NONE', #610, #263 ) ;
#452 = ORIENTED_EDGE ( 'NONE', *, *, #180, .T. ) ;
#453 = VECTOR ( 'NONE', #70, 39.37007874015748100 ) ;
#454 = FACE_OUTER_BOUND ( 'NONE', #630, .T. ) ;
#455 = ADVANCED_FACE ( 'NONE', ( #761 ), #1256, .T. ) ;
#456 = CARTESIAN_POINT ( 'NONE',  ( -1.055000000000000200, 0.1000000000000000100, -1.298000000000000900 ) ) ;
#457 = FACE_OUTER_BOUND ( 'NONE', #356, .T. ) ;
#458 = EDGE_LOOP ( 'NONE', ( #920, #306, #123, #927 ) ) ;
#459 = DIRECTION ( 'NONE',  ( 0.0000000000000000000, 0.0000000000000000000, 1.000000000000000000 ) ) ;
#460 = CARTESIAN_POINT ( 'NONE',  ( 0.0000000000000000000, 0.1000000000000000100, 0.0000000000000000000 ) ) ;
#461 = EDGE_LOOP ( 'NONE', ( #152, #1112, #663, #435 ) ) ;
#462 = EDGE_CURVE ( 'NONE', #274, #335, #1269, .T. ) ;
#463 = ORIENTED_EDGE ( 'NONE', *, *, #1194, .F. ) ;
#464 = EDGE_CURVE ( 'NONE', #490, #41, #81, .T. ) ;
#465 = DIRECTION ( 'NONE',  ( 0.0000000000000000000, 1.000000000000000000, 0.0000000000000000000 ) ) ;
#466 = CIRCLE ( 'NONE', #642, 0.07499999999999988600 ) ;
#467 = CARTESIAN_POINT ( 'NONE',  ( -0.9799999999999999800, 0.0000000000000000000, 1.297999999999999400 ) ) ;
#468 = CIRCLE ( 'NONE', #954, 0.07500000000000002500 ) ;
#469 = CIRCLE ( 'NONE', #809, 0.07500000000000002500 ) ;
#470 = PLANE ( 'NONE',  #75 ) ;
#471 = CARTESIAN_POINT ( 'NONE',  ( -1.019999999999999800, 0.1600000000000000000, 1.312999999999999900 ) ) ;
#472 = EDGE_CURVE ( 'NONE', #214, #1203, #814, .T. ) ;
#473 = CARTESIAN_POINT ( 'NONE',  ( 0.9799999999999996500, 0.07000000000000000700, -1.283000000000000100 ) ) ;
#474 = AXIS2_PLACEMENT_3D ( 'NONE', #1217, #935, #1120 ) ;
#475 = CARTESIAN_POINT ( 'NONE',  ( 0.8725000000000001600, -6.829619984160658000E-017, -1.171500000000000000 ) ) ;
#476 = ORIENTED_EDGE ( 'NONE', *, *, #713, .F. ) ;
#477 = DIRECTION ( 'NONE',  ( 0.0000000000000000000, 1.000000000000000000, 0.0000000000000000000 ) ) ;
#478 = CARTESIAN_POINT ( 'NONE',  ( -0.9800000000000002000, 0.1600000000000000000, -1.283000000000000100 ) ) ;
#479 = ORIENTED_EDGE ( 'NONE', *, *, #1132, .F. ) ;
#480 = DIRECTION ( 'NONE',  ( -1.064632889191061500E-016, 0.0000000000000000000, -1.000000000000000000 ) ) ;
#481 = LINE ( 'NONE', #485, #728 ) ;
#482 = CARTESIAN_POINT ( 'NONE',  ( 0.9799999999999997600, 0.05000000000000000300, -1.373000000000000900 ) ) ;
#483 = VECTOR ( 'NONE', #535, 39.37007874015748100 ) ;
#484 = VERTEX_POINT ( 'NONE', #710 ) ;
#485 = CARTESIAN_POINT ( 'NONE',  ( -1.019999999999999800, 0.1600000000000000000, -1.282999999999999500 ) ) ;
#486 = PLANE ( 'NONE',  #908 ) ;
#487 = EDGE_CURVE ( 'NONE', #523, #292, #50, .T. ) ;
#488 = ORIENTED_EDGE ( 'NONE', *, *, #530, .F. ) ;
#489 = DIMENSIONAL_EXPONENTS ( 1.000000000000000000, 0.0000000000000000000, 0.0000000000000000000, 0.0000000000000000000, 0.0000000000000000000, 0.0000000000000000000, 0.0000000000000000000 ) ;
#490 = VERTEX_POINT ( 'NONE', #1191 ) ;
#491 = ORIENTED_EDGE ( 'NONE', *, *, #348, .T. ) ;
#492 = ORIENTED_EDGE ( 'NONE', *, *, #378, .T. ) ;
#493 = ORIENTED_EDGE ( 'NONE', *, *, #1082, .F. ) ;
#494 = EDGE_LOOP ( 'NONE', ( #768, #491, #1248, #476 ) ) ;
#495 = CARTESIAN_POINT ( 'NONE',  ( 0.8725000000000001600, -6.829619984160658000E-017, -1.283578500000000000 ) ) ;
#496 = FACE_OUTER_BOUND ( 'NONE', #461, .T. ) ;
#497 = ADVANCED_FACE ( 'NONE', ( #544 ), #1004, .T. ) ;
#498 = SURFACE_STYLE_FILL_AREA ( #225 ) ;
#499 = CARTESIAN_POINT ( 'NONE',  ( 0.9899999999999997700, 0.1600000000000000000, -1.312999999999999900 ) ) ;
#500 = AXIS2_PLACEMENT_3D ( 'NONE', #212, #910, #1207 ) ;
#501 = VECTOR ( 'NONE', #1002, 39.37007874015748100 ) ;
#502 = DIRECTION ( 'NONE',  ( -9.948463196155361700E-017, 0.0000000000000000000, -1.000000000000000000 ) ) ;
#503 = ADVANCED_FACE ( 'NONE', ( #22, #240, #279, #684, #1068 ), #1212, .T. ) ;
#504 = CARTESIAN_POINT ( 'NONE',  ( -1.019999999999999800, 0.1600000000000000000, -1.282999999999999500 ) ) ;
#505 = DIRECTION ( 'NONE',  ( 0.0000000000000000000, 1.000000000000000000, 0.0000000000000000000 ) ) ;
#506 = CARTESIAN_POINT ( 'NONE',  ( -0.8724999999999999400, 0.07000000000000000700, -1.171500000000000000 ) ) ;
#507 = AXIS2_PLACEMENT_3D ( 'NONE', #130, #213, #600 ) ;
#508 = ORIENTED_EDGE ( 'NONE', *, *, #199, .T. ) ;
#509 = ORIENTED_EDGE ( 'NONE', *, *, #1082, .T. ) ;
#510 = ORIENTED_EDGE ( 'NONE', *, *, #527, .T. ) ;
#511 = CARTESIAN_POINT ( 'NONE',  ( -0.8724999999999999400, -6.829619984160658000E-017, -1.171500000000000000 ) ) ;
#512 = VECTOR ( 'NONE', #613, 39.37007874015748100 ) ;
#513 = EDGE_CURVE ( 'NONE', #383, #1267, #744, .T. ) ;
#514 = CIRCLE ( 'NONE', #128, 0.05000000000000001000 ) ;
#515 = ORIENTED_EDGE ( 'NONE', *, *, #224, .F. ) ;
#516 = DIRECTION ( 'NONE',  ( 0.0000000000000000000, 1.000000000000000000, 0.0000000000000000000 ) ) ;
#517 = CARTESIAN_POINT ( 'NONE',  ( -0.9799999999999999800, 0.1000000000000000100, 1.297999999999999400 ) ) ;
#518 = CARTESIAN_POINT ( 'NONE',  ( 1.019999999999999800, 0.1600000000000000000, 1.282999999999999900 ) ) ;
#519 = ORIENTED_EDGE ( 'NONE', *, *, #895, .T. ) ;
#520 = AXIS2_PLACEMENT_3D ( 'NONE', #93, #783, #902 ) ;
#521 = DIRECTION ( 'NONE',  ( -1.000000000000000000, 0.0000000000000000000, -0.0000000000000000000 ) ) ;
#522 = ORIENTED_EDGE ( 'NONE', *, *, #594, .F. ) ;
#523 = VERTEX_POINT ( 'NONE', #831 ) ;
#524 = ORIENTED_EDGE ( 'NONE', *, *, #326, .T. ) ;
#525 = AXIS2_PLACEMENT_3D ( 'NONE', #1026, #1229, #428 ) ;
#526 = ORIENTED_EDGE ( 'NONE', *, *, #840, .T. ) ;
#527 = EDGE_CURVE ( 'NONE', #353, #484, #729, .T. ) ;
#528 = VECTOR ( 'NONE', #800, 39.37007874015748100 ) ;
#529 = LINE ( 'NONE', #37, #409 ) ;
#530 = EDGE_CURVE ( 'NONE', #583, #156, #1030, .T. ) ;
#531 = CIRCLE ( 'NONE', #847, 0.05000000000000001000 ) ;
#532 = ORIENTED_EDGE ( 'NONE', *, *, #1106, .F. ) ;
#533 = CARTESIAN_POINT ( 'NONE',  ( 1.004999999999999700, 0.0000000000000000000, -1.298000000000000900 ) ) ;
#534 = EDGE_CURVE ( 'NONE', #693, #292, #529, .T. ) ;
#535 = DIRECTION ( 'NONE',  ( -0.0000000000000000000, 1.000000000000000000, -0.0000000000000000000 ) ) ;
#536 = PLANE ( 'NONE',  #110 ) ;
#537 = AXIS2_PLACEMENT_3D ( 'NONE', #58, #1049, #637 ) ;
#538 = CARTESIAN_POINT ( 'NONE',  ( -1.054999999999999900, 0.1000000000000000100, 1.297999999999999200 ) ) ;
#539 = VERTEX_POINT ( 'NONE', #1227 ) ;
#540 = MANIFOLD_SOLID_BREP ( 'Fillet3', #168 ) ;
#541 = ORIENTED_EDGE ( 'NONE', *, *, #261, .T. ) ;
#542 = LENGTH_MEASURE_WITH_UNIT ( LENGTH_MEASURE( 0.02539999999999999900 ), #328 );
#543 = CARTESIAN_POINT ( 'NONE',  ( 0.9899999999999997700, 0.1600000000000000000, -1.282999999999999900 ) ) ;
#544 = FACE_OUTER_BOUND ( 'NONE', #604, .T. ) ;
#545 = CARTESIAN_POINT ( 'NONE',  ( 0.9899999999999997700, 0.1600000000000000000, 1.312999999999999900 ) ) ;
#546 = CARTESIAN_POINT ( 'NONE',  ( 0.9799999999999997600, 0.05000000000000000300, -1.298000000000000900 ) ) ;
#547 = DIRECTION ( 'NONE',  ( 0.0000000000000000000, 0.0000000000000000000, -1.000000000000000000 ) ) ;
#548 = DIRECTION ( 'NONE',  ( 0.0000000000000000000, 0.0000000000000000000, 1.000000000000000000 ) ) ;
#549 = ORIENTED_EDGE ( 'NONE', *, *, #351, .T. ) ;
#550 = EDGE_CURVE ( 'NONE', #1239, #1071, #1066, .T. ) ;
#551 = DIRECTION ( 'NONE',  ( 0.0000000000000000000, 1.000000000000000000, 0.0000000000000000000 ) ) ;
#552 = ORIENTED_EDGE ( 'NONE', *, *, #825, .F. ) ;
#553 = EDGE_CURVE ( 'NONE', #583, #892, #864, .T. ) ;
#554 = DIRECTION ( 'NONE',  ( -0.0000000000000000000, -1.000000000000000000, -0.0000000000000000000 ) ) ;
#555 = ORIENTED_EDGE ( 'NONE', *, *, #135, .F. ) ;
#556 = EDGE_LOOP ( 'NONE', ( #1187, #293, #555, #681 ) ) ;
#557 = UNCERTAINTY_MEASURE_WITH_UNIT (LENGTH_MEASURE( 1.000000000000000100E-005 ), #83, 'distance_accuracy_value', 'NONE');
#558 = VECTOR ( 'NONE', #819, 39.37007874015748100 ) ;
#559 = DIRECTION ( 'NONE',  ( 1.000000000000000000, -0.0000000000000000000, -0.0000000000000000000 ) ) ;
#560 = LINE ( 'NONE', #49, #795 ) ;
#561 = DIRECTION ( 'NONE',  ( -1.000000000000000000, -0.0000000000000000000, -0.0000000000000000000 ) ) ;
#562 = CIRCLE ( 'NONE', #708, 0.02999999999999995400 ) ;
#563 = SURFACE_STYLE_USAGE ( .BOTH. , #72 ) ;
#564 = AXIS2_PLACEMENT_3D ( 'NONE', #303, #23, #696 ) ;
#565 = DIRECTION ( 'NONE',  ( 0.0000000000000000000, 0.0000000000000000000, 1.000000000000000000 ) ) ;
#566 = CARTESIAN_POINT ( 'NONE',  ( 0.9899999999999997700, 0.1000000000000000100, -1.282999999999999900 ) ) ;
#567 = VERTEX_POINT ( 'NONE', #1110 ) ;
#568 = EDGE_LOOP ( 'NONE', ( #1182, #201, #1125, #1230 ) ) ;
#569 =( NAMED_UNIT ( * ) PLANE_ANGLE_UNIT ( ) SI_UNIT ( $, .RADIAN. ) );
#570 = ORIENTED_EDGE ( 'NONE', *, *, #224, .T. ) ;
#571 = CARTESIAN_POINT ( 'NONE',  ( 0.9899999999999997700, 0.1600000000000000000, -1.282999999999999900 ) ) ;
#572 = VERTEX_POINT ( 'NONE', #533 ) ;
#573 = LINE ( 'NONE', #433, #789 ) ;
#574 = DIRECTION ( 'NONE',  ( 9.948463196155361700E-017, -0.0000000000000000000, 1.000000000000000000 ) ) ;
#575 = PRESENTATION_STYLE_ASSIGNMENT (( #826 ) ) ;
#576 = VECTOR ( 'NONE', #1197, 39.37007874015748100 ) ;
#577 = FACE_BOUND ( 'NONE', #724, .T. ) ;
#578 = DIRECTION ( 'NONE',  ( -0.0000000000000000000, 1.000000000000000000, -0.0000000000000000000 ) ) ;
#579 = EDGE_CURVE ( 'NONE', #234, #432, #1159, .T. ) ;
#580 = DIRECTION ( 'NONE',  ( 0.0000000000000000000, 0.0000000000000000000, 1.000000000000000000 ) ) ;
#581 = PRODUCT_DEFINITION_CONTEXT ( 'detailed design', #888, 'design' ) ;
#582 = ADVANCED_FACE ( 'NONE', ( #207 ), #139, .F. ) ;
#583 = VERTEX_POINT ( 'NONE', #942 ) ;
#584 = ORIENTED_EDGE ( 'NONE', *, *, #713, .T. ) ;
#585 = ORIENTED_EDGE ( 'NONE', *, *, #1106, .T. ) ;
#586 = ADVANCED_FACE ( 'NONE', ( #48 ), #436, .F. ) ;
#587 = DIRECTION ( 'NONE',  ( 0.0000000000000000000, 0.0000000000000000000, -1.000000000000000000 ) ) ;
#588 = AXIS2_PLACEMENT_3D ( 'NONE', #836, #1033, #315 ) ;
#589 = FACE_OUTER_BOUND ( 'NONE', #1153, .T. ) ;
#590 = DIRECTION ( 'NONE',  ( 0.0000000000000000000, 0.0000000000000000000, 1.000000000000000000 ) ) ;
#591 = LINE ( 'NONE', #143, #323 ) ;
#592 = ORIENTED_EDGE ( 'NONE', *, *, #622, .F. ) ;
#593 = AXIS2_PLACEMENT_3D ( 'NONE', #382, #763, #77 ) ;
#594 = EDGE_CURVE ( 'NONE', #893, #318, #424, .T. ) ;
#595 = CARTESIAN_POINT ( 'NONE',  ( -1.055000000000000200, 0.05000000000000000300, -1.323000000000000800 ) ) ;
#596 = CARTESIAN_POINT ( 'NONE',  ( -1.055000000000000200, 0.1000000000000000100, -1.298000000000000900 ) ) ;
#597 = VERTEX_POINT ( 'NONE', #232 ) ;
#598 = AXIS2_PLACEMENT_3D ( 'NONE', #923, #124, #112 ) ;
#599 = ORIENTED_EDGE ( 'NONE', *, *, #1147, .T. ) ;
#600 = DIRECTION ( 'NONE',  ( 0.0000000000000000000, 0.0000000000000000000, -1.000000000000000000 ) ) ;
#601 = ORIENTED_EDGE ( 'NONE', *, *, #799, .T. ) ;
#602 = EDGE_CURVE ( 'NONE', #597, #661, #591, .T. ) ;
#603 = DIRECTION ( 'NONE',  ( -0.0000000000000000000, -0.0000000000000000000, -1.000000000000000000 ) ) ;
#604 = EDGE_LOOP ( 'NONE', ( #479, #153, #229, #122 ) ) ;
#605 = FACE_OUTER_BOUND ( 'NONE', #811, .T. ) ;
#606 = AXIS2_PLACEMENT_3D ( 'NONE', #1009, #603, #401 ) ;
#607 = VECTOR ( 'NONE', #691, 39.37007874015748100 ) ;
#608 = DIRECTION ( 'NONE',  ( 0.0000000000000000000, 0.0000000000000000000, 1.000000000000000000 ) ) ;
#609 = CIRCLE ( 'NONE', #137, 0.1120785000000000800 ) ;
#610 = CARTESIAN_POINT ( 'NONE',  ( 1.054999999999999700, 0.1000000000000000100, -1.298000000000000900 ) ) ;
#611 = CARTESIAN_POINT ( 'NONE',  ( 0.8725000000000001600, -6.829619984160658000E-017, -1.171500000000000000 ) ) ;
#612 = AXIS2_PLACEMENT_3D ( 'NONE', #623, #629, #834 ) ;
#613 = DIRECTION ( 'NONE',  ( 9.948463196155361700E-017, -0.0000000000000000000, 1.000000000000000000 ) ) ;
#614 = ORIENTED_EDGE ( 'NONE', *, *, #534, .T. ) ;
#615 = CARTESIAN_POINT ( 'NONE',  ( -0.9800000000000002000, 0.0000000000000000000, -1.323000000000000800 ) ) ;
#616 = AXIS2_PLACEMENT_3D ( 'NONE', #145, #1224, #843 ) ;
#617 = ORIENTED_EDGE ( 'NONE', *, *, #215, .T. ) ;
#618 = EDGE_CURVE ( 'NONE', #693, #1163, #651, .T. ) ;
#619 = ORIENTED_EDGE ( 'NONE', *, *, #1144, .F. ) ;
#620 = CARTESIAN_POINT ( 'NONE',  ( -1.055000000000000200, 0.05000000000000000300, -1.373000000000000900 ) ) ;
#621 = EDGE_LOOP ( 'NONE', ( #647, #932, #44, #532 ) ) ;
#622 = EDGE_CURVE ( 'NONE', #398, #1139, #1181, .T. ) ;
#623 = CARTESIAN_POINT ( 'NONE',  ( 0.0000000000000000000, 0.07000000000000000700, 0.0000000000000000000 ) ) ;
#624 = VECTOR ( 'NONE', #86, 39.37007874015748100 ) ;
#625 = FACE_BOUND ( 'NONE', #1189, .T. ) ;
#626 = DIRECTION ( 'NONE',  ( -1.000000000000000000, 0.0000000000000000000, -0.0000000000000000000 ) ) ;
#627 = AXIS2_PLACEMENT_3D ( 'NONE', #294, #894, #694 ) ;
#628 = CARTESIAN_POINT ( 'NONE',  ( -0.9800000000000002000, 0.07000000000000000700, -1.283000000000000100 ) ) ;
#629 = DIRECTION ( 'NONE',  ( 0.0000000000000000000, 1.000000000000000000, 0.0000000000000000000 ) ) ;
#630 = EDGE_LOOP ( 'NONE', ( #549, #1251, #420, #805 ) ) ;
#631 = ORIENTED_EDGE ( 'NONE', *, *, #1275, .T. ) ;
#632 = EDGE_LOOP ( 'NONE', ( #662, #381, #986, #287 ) ) ;
#633 = DIRECTION ( 'NONE',  ( -0.0000000000000000000, -0.0000000000000000000, 1.000000000000000000 ) ) ;
#634 = ORIENTED_EDGE ( 'NONE', *, *, #804, .F. ) ;
#635 = FACE_OUTER_BOUND ( 'NONE', #186, .T. ) ;
#636 = FACE_BOUND ( 'NONE', #1126, .T. ) ;
#637 = DIRECTION ( 'NONE',  ( 0.0000000000000000000, 0.0000000000000000000, 1.000000000000000000 ) ) ;
#638 = CIRCLE ( 'NONE', #723, 0.02999999999999995400 ) ;
#639 = DIRECTION ( 'NONE',  ( 0.0000000000000000000, 1.000000000000000000, 0.0000000000000000000 ) ) ;
#640 = ORIENTED_EDGE ( 'NONE', *, *, #656, .F. ) ;
#641 = DIRECTION ( 'NONE',  ( 0.0000000000000000000, 0.0000000000000000000, -1.000000000000000000 ) ) ;
#642 = AXIS2_PLACEMENT_3D ( 'NONE', #1097, #505, #210 ) ;
#643 = DIRECTION ( 'NONE',  ( -1.000000000000000000, 0.0000000000000000000, 2.731847993664262800E-015 ) ) ;
#644 = EDGE_CURVE ( 'NONE', #150, #91, #389, .T. ) ;
#645 = VERTEX_POINT ( 'NONE', #159 ) ;
#646 = ORIENTED_EDGE ( 'NONE', *, *, #407, .T. ) ;
#647 = ORIENTED_EDGE ( 'NONE', *, *, #1234, .F. ) ;
#648 = CARTESIAN_POINT ( 'NONE',  ( 0.8725000000000001600, -6.829619984160658000E-017, -1.171500000000000000 ) ) ;
#649 = VECTOR ( 'NONE', #502, 39.37007874015748100 ) ;
#650 = DIRECTION ( 'NONE',  ( -0.0000000000000000000, -1.000000000000000000, -0.0000000000000000000 ) ) ;
#651 = CIRCLE ( 'NONE', #537, 0.05122842835286414700 ) ;
#652 = CONICAL_SURFACE ( 'NONE', #19, 0.1120785000000000800, 0.7155849933176751100 ) ;
#653 = STYLED_ITEM ( 'NONE', ( #575 ), #540 ) ;
#654 = DIRECTION ( 'NONE',  ( 0.0000000000000000000, -0.7547095802227720100, -0.6560590289905072800 ) ) ;
#655 = DIRECTION ( 'NONE',  ( -1.000000000000000000, -0.0000000000000000000, -0.0000000000000000000 ) ) ;
#656 = EDGE_CURVE ( 'NONE', #711, #1239, #33, .T. ) ;
#657 = PLANE ( 'NONE',  #417 ) ;
#658 = EDGE_LOOP ( 'NONE', ( #996, #1094, #1098, #1062 ) ) ;
#659 =( LENGTH_UNIT ( ) NAMED_UNIT ( * ) SI_UNIT ( $, .METRE. ) );
#660 = DIRECTION ( 'NONE',  ( 0.0000000000000000000, -1.000000000000000000, 0.0000000000000000000 ) ) ;
#661 = VERTEX_POINT ( 'NONE', #147 ) ;
#662 = ORIENTED_EDGE ( 'NONE', *, *, #579, .F. ) ;
#663 = ORIENTED_EDGE ( 'NONE', *, *, #247, .F. ) ;
#664 = DIRECTION ( 'NONE',  ( -0.0000000000000000000, -1.000000000000000000, -0.0000000000000000000 ) ) ;
#665 = EDGE_LOOP ( 'NONE', ( #824, #449 ) ) ;
#666 = CYLINDRICAL_SURFACE ( 'NONE', #891, 0.02999999999999995400 ) ;
#667 = CYLINDRICAL_SURFACE ( 'NONE', #300, 0.02999999999999995400 ) ;
#668 = VECTOR ( 'NONE', #578, 39.37007874015748100 ) ;
#669 = EDGE_CURVE ( 'NONE', #645, #234, #114, .T. ) ;
#670 = VERTEX_POINT ( 'NONE', #751 ) ;
#671 =( NAMED_UNIT ( * ) SI_UNIT ( $, .STERADIAN. ) SOLID_ANGLE_UNIT ( ) );
#672 = CARTESIAN_POINT ( 'NONE',  ( 1.019999999999999800, 0.1000000000000000100, 1.312999999999999900 ) ) ;
#673 = ADVANCED_FACE ( 'NONE', ( #63, #636 ), #255, .T. ) ;
#674 = AXIS2_PLACEMENT_3D ( 'NONE', #941, #833, #733 ) ;
#675 = CARTESIAN_POINT ( 'NONE',  ( -0.9899999999999997700, 0.1000000000000000100, -1.312999999999999900 ) ) ;
#676 = ORIENTED_EDGE ( 'NONE', *, *, #748, .T. ) ;
#677 =( NAMED_UNIT ( * ) PLANE_ANGLE_UNIT ( ) SI_UNIT ( $, .RADIAN. ) );
#678 = ORIENTED_EDGE ( 'NONE', *, *, #1199, .F. ) ;
#679 = DIRECTION ( 'NONE',  ( -0.0000000000000000000, -1.000000000000000000, -0.0000000000000000000 ) ) ;
#680 = MECHANICAL_DESIGN_GEOMETRIC_PRESENTATION_REPRESENTATION (  '', ( #653 ), #1092 ) ;
#681 = ORIENTED_EDGE ( 'NONE', *, *, #1214, .F. ) ;
#682 = DIRECTION ( 'NONE',  ( 1.000000000000000000, 0.0000000000000000000, 0.0000000000000000000 ) ) ;
#683 = VECTOR ( 'NONE', #717, 39.37007874015748100 ) ;
#684 = FACE_BOUND ( 'NONE', #337, .T. ) ;
#685 = DIRECTION ( 'NONE',  ( 0.0000000000000000000, 0.0000000000000000000, 1.000000000000000000 ) ) ;
#686 = EDGE_CURVE ( 'NONE', #966, #316, #370, .T. ) ;
#687 = ADVANCED_FACE ( 'NONE', ( #926 ), #246, .F. ) ;
#688 = ORIENTED_EDGE ( 'NONE', *, *, #946, .T. ) ;
#689 = EDGE_CURVE ( 'NONE', #490, #966, #560, .T. ) ;
#690 = CARTESIAN_POINT ( 'NONE',  ( -1.019999999999999800, 0.1000000000000000100, -1.312999999999999900 ) ) ;
#691 = DIRECTION ( 'NONE',  ( -1.000000000000000000, -0.0000000000000000000, -0.0000000000000000000 ) ) ;
#692 = ADVANCED_FACE ( 'NONE', ( #80 ), #448, .F. ) ;
#693 = VERTEX_POINT ( 'NONE', #53 ) ;
#694 = DIRECTION ( 'NONE',  ( 0.0000000000000000000, -0.0000000000000000000, -1.000000000000000000 ) ) ;
#695 = ORIENTED_EDGE ( 'NONE', *, *, #1102, .F. ) ;
#696 = DIRECTION ( 'NONE',  ( -1.000000000000000000, 0.0000000000000000000, -5.463695987328525600E-015 ) ) ;
#697 = ORIENTED_EDGE ( 'NONE', *, *, #1244, .F. ) ;
#698 = ORIENTED_EDGE ( 'NONE', *, *, #644, .T. ) ;
#699 = DIRECTION ( 'NONE',  ( 0.0000000000000000000, 0.0000000000000000000, 1.000000000000000000 ) ) ;
#700 = AXIS2_PLACEMENT_3D ( 'NONE', #1200, #220, #121 ) ;
#701 = CIRCLE ( 'NONE', #151, 0.1120785000000000800 ) ;
#702 = DIRECTION ( 'NONE',  ( -0.0000000000000000000, -1.000000000000000000, -0.0000000000000000000 ) ) ;
#703 = FACE_OUTER_BOUND ( 'NONE', #182, .T. ) ;
#704 = LINE ( 'NONE', #495, #144 ) ;
#705 = CIRCLE ( 'NONE', #871, 0.02499999999999987000 ) ;
#706 = PLANE ( 'NONE',  #598 ) ;
#707 = ADVANCED_FACE ( 'NONE', ( #7 ), #759, .F. ) ;
#708 = AXIS2_PLACEMENT_3D ( 'NONE', #566, #554, #1056 ) ;
#709 = DIRECTION ( 'NONE',  ( -1.064632889191061500E-016, -0.0000000000000000000, -1.000000000000000000 ) ) ;
#710 = CARTESIAN_POINT ( 'NONE',  ( -0.9899999999999997700, 0.1600000000000000000, 1.312999999999999900 ) ) ;
#711 = VERTEX_POINT ( 'NONE', #545 ) ;
#712 = DIRECTION ( 'NONE',  ( 0.0000000000000000000, 0.0000000000000000000, 1.000000000000000000 ) ) ;
#713 = EDGE_CURVE ( 'NONE', #934, #28, #1100, .T. ) ;
#714 = ORIENTED_EDGE ( 'NONE', *, *, #946, .F. ) ;
#715 = EDGE_LOOP ( 'NONE', ( #442, #248, #982, #953 ) ) ;
#716 = FACE_OUTER_BOUND ( 'NONE', #771, .T. ) ;
#717 = DIRECTION ( 'NONE',  ( 0.0000000000000000000, -1.000000000000000000, 0.0000000000000000000 ) ) ;
#718 = LINE ( 'NONE', #801, #9 ) ;
#719 = DIRECTION ( 'NONE',  ( 8.034405899049453800E-017, -0.7547095802227720100, 0.6560590289905072800 ) ) ;
#720 = VECTOR ( 'NONE', #450, 39.37007874015748100 ) ;
#721 = DIRECTION ( 'NONE',  ( 0.0000000000000000000, 0.0000000000000000000, -1.000000000000000000 ) ) ;
#722 = CARTESIAN_POINT ( 'NONE',  ( -0.9899999999999997700, 0.1600000000000000000, 1.282999999999999900 ) ) ;
#723 = AXIS2_PLACEMENT_3D ( 'NONE', #1, #987, #84 ) ;
#724 = EDGE_LOOP ( 'NONE', ( #755, #933 ) ) ;
#725 = ORIENTED_EDGE ( 'NONE', *, *, #60, .F. ) ;
#726 = EDGE_CURVE ( 'NONE', #28, #57, #1195, .T. ) ;
#727 = ORIENTED_EDGE ( 'NONE', *, *, #959, .T. ) ;
#728 = VECTOR ( 'NONE', #903, 39.37007874015748100 ) ;
#729 = CIRCLE ( 'NONE', #413, 0.02999999999999995400 ) ;
#730 = LINE ( 'NONE', #393, #668 ) ;
#731 = DIRECTION ( 'NONE',  ( 0.0000000000000000000, 1.000000000000000000, 0.0000000000000000000 ) ) ;
#732 = DIRECTION ( 'NONE',  ( 0.0000000000000000000, -0.0000000000000000000, 1.000000000000000000 ) ) ;
#733 = DIRECTION ( 'NONE',  ( 0.0000000000000000000, 0.0000000000000000000, 1.000000000000000000 ) ) ;
#734 = EDGE_CURVE ( 'NONE', #838, #374, #848, .T. ) ;
#735 = CARTESIAN_POINT ( 'NONE',  ( -1.019999999999999800, 0.1600000000000000000, 1.312999999999999900 ) ) ;
#736 = CARTESIAN_POINT ( 'NONE',  ( -0.8724999999999999400, -6.829619984160658000E-017, -1.059421499999999800 ) ) ;
#737 = CARTESIAN_POINT ( 'NONE',  ( -0.8725000000000001600, -6.829619984160658000E-017, 1.171500000000000000 ) ) ;
#738 = CARTESIAN_POINT ( 'NONE',  ( 0.0000000000000000000, 0.0000000000000000000, -1.323000000000000800 ) ) ;
#739 = ORIENTED_EDGE ( 'NONE', *, *, #407, .F. ) ;
#740 = VERTEX_POINT ( 'NONE', #1258 ) ;
#741 = CARTESIAN_POINT ( 'NONE',  ( 0.8724999999999999400, 0.07000000000000000700, 1.171500000000000000 ) ) ;
#742 = ORIENTED_EDGE ( 'NONE', *, *, #199, .F. ) ;
#743 = FACE_OUTER_BOUND ( 'NONE', #877, .T. ) ;
#744 = LINE ( 'NONE', #27, #483 ) ;
#745 = VECTOR ( 'NONE', #574, 39.37007874015748100 ) ;
#746 = PRODUCT_DEFINITION ( 'UNKNOWN', '', #764, #581 ) ;
#747 = CARTESIAN_POINT ( 'NONE',  ( 0.9899999999999997700, 0.1600000000000000000, 1.282999999999999900 ) ) ;
#748 = EDGE_CURVE ( 'NONE', #41, #838, #468, .T. ) ;
#749 = CARTESIAN_POINT ( 'NONE',  ( -1.019999999999999800, 0.1600000000000000000, -1.312999999999999900 ) ) ;
#750 = EDGE_CURVE ( 'NONE', #1042, #597, #1254, .T. ) ;
#751 = CARTESIAN_POINT ( 'NONE',  ( 1.019999999999999800, 0.1600000000000000000, -1.282999999999999900 ) ) ;
#752 = VERTEX_POINT ( 'NONE', #975 ) ;
#753 = AXIS2_PLACEMENT_3D ( 'NONE', #103, #390, #699 ) ;
#754 = ORIENTED_EDGE ( 'NONE', *, *, #180, .F. ) ;
#755 = ORIENTED_EDGE ( 'NONE', *, *, #1263, .F. ) ;
#756 = DIRECTION ( 'NONE',  ( -0.0000000000000000000, 1.000000000000000000, -0.0000000000000000000 ) ) ;
#757 = VERTEX_POINT ( 'NONE', #73 ) ;
#758 = FACE_OUTER_BOUND ( 'NONE', #333, .T. ) ;
#759 = CONICAL_SURFACE ( 'NONE', #1156, 0.1120785000000000800, 0.7155849933176751100 ) ;
#760 = APPLICATION_CONTEXT ( 'automotive_design' ) ;
#761 = FACE_OUTER_BOUND ( 'NONE', #1037, .T. ) ;
#762 = DIRECTION ( 'NONE',  ( 0.0000000000000000000, 1.000000000000000000, -0.0000000000000000000 ) ) ;
#763 = DIRECTION ( 'NONE',  ( -1.000000000000000000, 0.0000000000000000000, 9.948463196155361700E-017 ) ) ;
#764 = PRODUCT_DEFINITION_FORMATION_WITH_SPECIFIED_SOURCE ( 'ANY', '', #133, .NOT_KNOWN. ) ;
#765 = DIRECTION ( 'NONE',  ( 0.0000000000000000000, 0.0000000000000000000, 1.000000000000000000 ) ) ;
#766 = CARTESIAN_POINT ( 'NONE',  ( -1.054999999999999900, 0.05000000000000000300, 1.372999999999999300 ) ) ;
#767 = ADVANCED_FACE ( 'NONE', ( #605 ), #5, .F. ) ;
#768 = ORIENTED_EDGE ( 'NONE', *, *, #311, .F. ) ;
#769 = AXIS2_PLACEMENT_3D ( 'NONE', #1067, #188, #290 ) ;
#770 = ORIENTED_EDGE ( 'NONE', *, *, #311, .T. ) ;
#771 = EDGE_LOOP ( 'NONE', ( #922, #1032, #411, #493 ) ) ;
#772 = PLANE ( 'NONE',  #593 ) ;
#773 = CARTESIAN_POINT ( 'NONE',  ( 0.9799999999999999800, 0.0000000000000000000, 1.297999999999999200 ) ) ;
#774 = LINE ( 'NONE', #983, #896 ) ;
#775 = ADVANCED_FACE ( 'NONE', ( #238 ), #667, .T. ) ;
#776 = CARTESIAN_POINT ( 'NONE',  ( 0.8725000000000001600, -6.829619984160658000E-017, -1.059421499999999800 ) ) ;
#777 = CYLINDRICAL_SURFACE ( 'NONE', #99, 0.07500000000000002500 ) ;
#778 = EDGE_CURVE ( 'NONE', #316, #645, #438, .T. ) ;
#779 = ORIENTED_EDGE ( 'NONE', *, *, #594, .T. ) ;
#780 = DIRECTION ( 'NONE',  ( 0.0000000000000000000, 0.0000000000000000000, -1.000000000000000000 ) ) ;
#781 = ADVANCED_FACE ( 'NONE', ( #703 ), #470, .F. ) ;
#782 = PLANE ( 'NONE',  #627 ) ;
#783 = DIRECTION ( 'NONE',  ( 0.0000000000000000000, 1.000000000000000000, 0.0000000000000000000 ) ) ;
#784 = ORIENTED_EDGE ( 'NONE', *, *, #247, .T. ) ;
#785 = CARTESIAN_POINT ( 'NONE',  ( -1.054999999999999900, 0.1000000000000000100, 1.372999999999999300 ) ) ;
#786 = AXIS2_PLACEMENT_3D ( 'NONE', #460, #948, #952 ) ;
#787 = ORIENTED_EDGE ( 'NONE', *, *, #1008, .F. ) ;
#788 = ADVANCED_FACE ( 'NONE', ( #970 ), #666, .T. ) ;
#789 = VECTOR ( 'NONE', #244, 39.37007874015748100 ) ;
#790 = ORIENTED_EDGE ( 'NONE', *, *, #840, .F. ) ;
#791 = CARTESIAN_POINT ( 'NONE',  ( -1.019999999999999800, 0.1000000000000000100, 1.312999999999999900 ) ) ;
#792 = ORIENTED_EDGE ( 'NONE', *, *, #1118, .T. ) ;
#793 = LINE ( 'NONE', #785, #265 ) ;
#794 = AXIS2_PLACEMENT_3D ( 'NONE', #1119, #731, #141 ) ;
#795 = VECTOR ( 'NONE', #344, 39.37007874015748100 ) ;
#796 = CARTESIAN_POINT ( 'NONE',  ( 1.019999999999999800, 0.1000000000000000100, -1.282999999999999900 ) ) ;
#797 = EDGE_CURVE ( 'NONE', #597, #1096, #32, .T. ) ;
#798 = VECTOR ( 'NONE', #868, 39.37007874015748100 ) ;
#799 = EDGE_CURVE ( 'NONE', #1071, #937, #187, .T. ) ;
#800 = DIRECTION ( 'NONE',  ( -1.000000000000000000, -0.0000000000000000000, -0.0000000000000000000 ) ) ;
#801 = CARTESIAN_POINT ( 'NONE',  ( 1.019999999999999800, 0.1600000000000000000, -1.282999999999999900 ) ) ;
#802 = ORIENTED_EDGE ( 'NONE', *, *, #88, .T. ) ;
#803 = DIRECTION ( 'NONE',  ( 8.034405899049453800E-017, -0.7547095802227720100, 0.6560590289905072800 ) ) ;
#804 = EDGE_CURVE ( 'NONE', #3, #55, #405, .T. ) ;
#805 = ORIENTED_EDGE ( 'NONE', *, *, #1194, .T. ) ;
#806 = CARTESIAN_POINT ( 'NONE',  ( 0.9800000000000000900, 0.1000000000000000100, 1.372999999999999300 ) ) ;
#807 = EDGE_LOOP ( 'NONE', ( #634, #994 ) ) ;
#808 = ORIENTED_EDGE ( 'NONE', *, *, #734, .T. ) ;
#809 = AXIS2_PLACEMENT_3D ( 'NONE', #98, #1186, #1173 ) ;
#810 = VECTOR ( 'NONE', #29, 39.37007874015748100 ) ;
#811 = EDGE_LOOP ( 'NONE', ( #488, #365, #541, #844 ) ) ;
#812 = CARTESIAN_POINT ( 'NONE',  ( 0.8724999999999999400, -6.829619984160658000E-017, 1.059421499999999800 ) ) ;
#813 = ADVANCED_FACE ( 'NONE', ( #277 ), #1044, .T. ) ;
#814 = CIRCLE ( 'NONE', #1070, 0.05122842835286414700 ) ;
#815 = FACE_OUTER_BOUND ( 'NONE', #494, .T. ) ;
#816 = CARTESIAN_POINT ( 'NONE',  ( -0.8724999999999999400, -6.829619984160658000E-017, -1.283578500000000000 ) ) ;
#817 = PLANE ( 'NONE',  #700 ) ;
#818 = AXIS2_PLACEMENT_3D ( 'NONE', #191, #1190, #580 ) ;
#819 = DIRECTION ( 'NONE',  ( 0.0000000000000000000, -0.7547095802227720100, -0.6560590289905072800 ) ) ;
#820 = DIRECTION ( 'NONE',  ( 8.034405899049453800E-017, -0.7547095802227720100, 0.6560590289905072800 ) ) ;
#821 = PRODUCT_RELATED_PRODUCT_CATEGORY ( 'part', '', ( #133 ) ) ;
#822 = ORIENTED_EDGE ( 'NONE', *, *, #1147, .F. ) ;
#823 = EDGE_CURVE ( 'NONE', #993, #403, #774, .T. ) ;
#824 = ORIENTED_EDGE ( 'NONE', *, *, #25, .F. ) ;
#825 = EDGE_CURVE ( 'NONE', #740, #398, #514, .T. ) ;
#826 = SURFACE_STYLE_USAGE ( .BOTH. , #227 ) ;
#827 = ORIENTED_EDGE ( 'NONE', *, *, #686, .F. ) ;
#828 = ORIENTED_EDGE ( 'NONE', *, *, #1164, .T. ) ;
#829 = FACE_OUTER_BOUND ( 'NONE', #568, .T. ) ;
#830 = DIRECTION ( 'NONE',  ( -0.0000000000000000000, -1.000000000000000000, -0.0000000000000000000 ) ) ;
#831 = CARTESIAN_POINT ( 'NONE',  ( 0.8725000000000001600, -6.829619984160658000E-017, -1.283578500000000000 ) ) ;
#832 = FACE_OUTER_BOUND ( 'NONE', #658, .T. ) ;
#833 = DIRECTION ( 'NONE',  ( 0.0000000000000000000, 1.000000000000000000, 0.0000000000000000000 ) ) ;
#834 = DIRECTION ( 'NONE',  ( 0.0000000000000000000, -0.0000000000000000000, 1.000000000000000000 ) ) ;
#835 = CARTESIAN_POINT ( 'NONE',  ( -1.019999999999999800, 0.1600000000000000000, 1.312999999999999900 ) ) ;
#836 = CARTESIAN_POINT ( 'NONE',  ( 0.8724999999999999400, 0.07000000000000000700, 1.171500000000000000 ) ) ;
#837 = AXIS2_PLACEMENT_3D ( 'NONE', #85, #874, #69 ) ;
#838 = VERTEX_POINT ( 'NONE', #1166 ) ;
#839 = CARTESIAN_POINT ( 'NONE',  ( 1.054999999999999700, 0.1000000000000000100, -1.298000000000000900 ) ) ;
#840 = EDGE_CURVE ( 'NONE', #374, #740, #388, .T. ) ;
#841 = ORIENTED_EDGE ( 'NONE', *, *, #1061, .T. ) ;
#842 = ORIENTED_EDGE ( 'NONE', *, *, #644, .F. ) ;
#843 = DIRECTION ( 'NONE',  ( 0.0000000000000000000, 0.0000000000000000000, -1.000000000000000000 ) ) ;
#844 = ORIENTED_EDGE ( 'NONE', *, *, #1216, .T. ) ;
#845 = CARTESIAN_POINT ( 'NONE',  ( 1.004999999999999900, 0.05000000000000000300, 1.297999999999999200 ) ) ;
#846 = ORIENTED_EDGE ( 'NONE', *, *, #867, .T. ) ;
#847 = AXIS2_PLACEMENT_3D ( 'NONE', #1087, #780, #1271 ) ;
#848 = LINE ( 'NONE', #54, #1003 ) ;
#849 = CARTESIAN_POINT ( 'NONE',  ( 0.9799999999999996500, 0.07000000000000000700, -1.283000000000000100 ) ) ;
#850 = CIRCLE ( 'NONE', #769, 0.02999999999999995400 ) ;
#851 = CARTESIAN_POINT ( 'NONE',  ( 1.019999999999999800, 0.1600000000000000000, 1.282999999999999900 ) ) ;
#852 = VECTOR ( 'NONE', #349, 39.37007874015748100 ) ;
#853 = DIRECTION ( 'NONE',  ( -1.000000000000000000, 0.0000000000000000000, 0.0000000000000000000 ) ) ;
#854 = EDGE_CURVE ( 'NONE', #274, #398, #251, .T. ) ;
#855 = CARTESIAN_POINT ( 'NONE',  ( -1.054999999999999900, 0.05000000000000000300, 1.297999999999999200 ) ) ;
#856 = ORIENTED_EDGE ( 'NONE', *, *, #726, .T. ) ;
#857 = ADVANCED_FACE ( 'NONE', ( #1192, #743 ), #782, .F. ) ;
#858 = DIRECTION ( 'NONE',  ( -0.0000000000000000000, 1.000000000000000000, -0.0000000000000000000 ) ) ;
#859 = ORIENTED_EDGE ( 'NONE', *, *, #351, .F. ) ;
#860 = EDGE_LOOP ( 'NONE', ( #842, #347, #24, #949 ) ) ;
#861 = DIRECTION ( 'NONE',  ( 0.0000000000000000000, 0.0000000000000000000, 1.000000000000000000 ) ) ;
#862 = VECTOR ( 'NONE', #914, 39.37007874015748100 ) ;
#863 = DIRECTION ( 'NONE',  ( 1.000000000000000000, 0.0000000000000000000, -0.0000000000000000000 ) ) ;
#864 = CIRCLE ( 'NONE', #588, 0.05122842835286414700 ) ;
#865 = FACE_BOUND ( 'NONE', #105, .T. ) ;
#866 = CARTESIAN_POINT ( 'NONE',  ( -0.9800000000000002000, 0.05000000000000000300, -1.323000000000000800 ) ) ;
#867 = EDGE_CURVE ( 'NONE', #838, #934, #925, .T. ) ;
#868 = DIRECTION ( 'NONE',  ( 1.000000000000000000, 0.0000000000000000000, 0.0000000000000000000 ) ) ;
#869 = CARTESIAN_POINT ( 'NONE',  ( -0.9899999999999997700, 0.1600000000000000000, -1.282999999999999500 ) ) ;
#870 = DIRECTION ( 'NONE',  ( 1.064632889191061500E-016, 0.0000000000000000000, 1.000000000000000000 ) ) ;
#871 = AXIS2_PLACEMENT_3D ( 'NONE', #1060, #1255, #160 ) ;
#872 = ORIENTED_EDGE ( 'NONE', *, *, #958, .T. ) ;
#873 = DIRECTION ( 'NONE',  ( 0.0000000000000000000, 0.0000000000000000000, -1.000000000000000000 ) ) ;
#874 = DIRECTION ( 'NONE',  ( 0.0000000000000000000, 0.0000000000000000000, 1.000000000000000000 ) ) ;
#875 = DIRECTION ( 'NONE',  ( 0.0000000000000000000, 0.0000000000000000000, -1.000000000000000000 ) ) ;
#876 = EDGE_LOOP ( 'NONE', ( #697, #951 ) ) ;
#877 = EDGE_LOOP ( 'NONE', ( #617, #42, #452, #260, #508, #631, #89, #510 ) ) ;
#878 = EDGE_CURVE ( 'NONE', #234, #966, #357, .T. ) ;
#879 = VECTOR ( 'NONE', #870, 39.37007874015748100 ) ;
#880 = DIRECTION ( 'NONE',  ( 1.000000000000000000, 0.0000000000000000000, 0.0000000000000000000 ) ) ;
#881 = VECTOR ( 'NONE', #363, 39.37007874015748100 ) ;
#882 = DIRECTION ( 'NONE',  ( 0.0000000000000000000, 0.0000000000000000000, -1.000000000000000000 ) ) ;
#883 = CIRCLE ( 'NONE', #1024, 0.05122842835286414700 ) ;
#884 = AXIS2_PLACEMENT_3D ( 'NONE', #1089, #1105, #1202 ) ;
#885 =( CONVERSION_BASED_UNIT ( 'INCH', #1129 ) LENGTH_UNIT ( ) NAMED_UNIT ( #1184 ) );
#886 = CARTESIAN_POINT ( 'NONE',  ( -0.8724999999999999400, -6.829619984160658000E-017, -1.171500000000000000 ) ) ;
#887 = CARTESIAN_POINT ( 'NONE',  ( -0.9799999999999999800, 0.05000000000000000300, 1.322999999999999300 ) ) ;
#888 = APPLICATION_CONTEXT ( 'automotive_design' ) ;
#889 = ORIENTED_EDGE ( 'NONE', *, *, #1118, .F. ) ;
#890 = CARTESIAN_POINT ( 'NONE',  ( -0.8724999999999999400, -6.829619984160658000E-017, -1.171500000000000000 ) ) ;
#891 = AXIS2_PLACEMENT_3D ( 'NONE', #571, #978, #1154 ) ;
#892 = VERTEX_POINT ( 'NONE', #361 ) ;
#893 = VERTEX_POINT ( 'NONE', #1274 ) ;
#894 = DIRECTION ( 'NONE',  ( 0.0000000000000000000, -1.000000000000000000, 0.0000000000000000000 ) ) ;
#895 = EDGE_CURVE ( 'NONE', #1246, #150, #423, .T. ) ;
#896 = VECTOR ( 'NONE', #969, 39.37007874015748100 ) ;
#897 = DIRECTION ( 'NONE',  ( -1.000000000000000000, 0.0000000000000000000, 0.0000000000000000000 ) ) ;
#898 = EDGE_CURVE ( 'NONE', #1014, #1233, #94, .T. ) ;
#899 = ADVANCED_FACE ( 'NONE', ( #716 ), #1029, .F. ) ;
#900 = ORIENTED_EDGE ( 'NONE', *, *, #823, .F. ) ;
#901 = DIRECTION ( 'NONE',  ( -0.0000000000000000000, -1.000000000000000000, -0.0000000000000000000 ) ) ;
#902 = DIRECTION ( 'NONE',  ( 0.0000000000000000000, 0.0000000000000000000, 1.000000000000000000 ) ) ;
#903 = DIRECTION ( 'NONE',  ( -0.0000000000000000000, -1.000000000000000000, 0.0000000000000000000 ) ) ;
#904 = ADVANCED_FACE ( 'NONE', ( #437 ), #1235, .T. ) ;
#905 = DIRECTION ( 'NONE',  ( -9.948463196155362900E-017, 0.0000000000000000000, -1.000000000000000000 ) ) ;
#906 = VERTEX_POINT ( 'NONE', #96 ) ;
#907 = CARTESIAN_POINT ( 'NONE',  ( -0.9800000000000002000, 0.1000000000000000100, -1.373000000000000900 ) ) ;
#908 = AXIS2_PLACEMENT_3D ( 'NONE', #1180, #13, #106 ) ;
#909 = ORIENTED_EDGE ( 'NONE', *, *, #243, .F. ) ;
#910 = DIRECTION ( 'NONE',  ( 0.0000000000000000000, 1.000000000000000000, 0.0000000000000000000 ) ) ;
#911 = ORIENTED_EDGE ( 'NONE', *, *, #472, .T. ) ;
#912 = LINE ( 'NONE', #330, #218 ) ;
#913 = VECTOR ( 'NONE', #1222, 39.37007874015748100 ) ;
#914 = DIRECTION ( 'NONE',  ( -0.0000000000000000000, 1.000000000000000000, -0.0000000000000000000 ) ) ;
#915 = FACE_OUTER_BOUND ( 'NONE', #127, .T. ) ;
#916 = CARTESIAN_POINT ( 'NONE',  ( -0.9799999999999999800, 0.1000000000000000100, 1.372999999999999300 ) ) ;
#917 = FACE_OUTER_BOUND ( 'NONE', #556, .T. ) ;
#918 = DIRECTION ( 'NONE',  ( -1.000000000000000000, 0.0000000000000000000, 0.0000000000000000000 ) ) ;
#919 = DIRECTION ( 'NONE',  ( 0.0000000000000000000, -1.000000000000000000, 0.0000000000000000000 ) ) ;
#920 = ORIENTED_EDGE ( 'NONE', *, *, #286, .T. ) ;
#921 = DIRECTION ( 'NONE',  ( -9.948463196155364200E-017, -0.0000000000000000000, -1.000000000000000000 ) ) ;
#922 = ORIENTED_EDGE ( 'NONE', *, *, #1174, .T. ) ;
#923 = CARTESIAN_POINT ( 'NONE',  ( -0.9800000000000002000, 0.07000000000000000700, -1.283000000000000100 ) ) ;
#924 =( NAMED_UNIT ( * ) SI_UNIT ( $, .STERADIAN. ) SOLID_ANGLE_UNIT ( ) );
#925 = LINE ( 'NONE', #302, #624 ) ;
#926 = FACE_OUTER_BOUND ( 'NONE', #231, .T. ) ;
#927 = ORIENTED_EDGE ( 'NONE', *, *, #104, .F. ) ;
#928 = CARTESIAN_POINT ( 'NONE',  ( -0.8724999999999999400, -6.829619984160658000E-017, -1.059421499999999800 ) ) ;
#929 =( CONVERSION_BASED_UNIT ( 'INCH', #542 ) LENGTH_UNIT ( ) NAMED_UNIT ( #489 ) );
#930 = AXIS2_PLACEMENT_3D ( 'NONE', #845, #547, #853 ) ;
#931 = DIRECTION ( 'NONE',  ( 0.0000000000000000000, -1.000000000000000000, 0.0000000000000000000 ) ) ;
#932 = ORIENTED_EDGE ( 'NONE', *, *, #1107, .T. ) ;
#933 = ORIENTED_EDGE ( 'NONE', *, *, #959, .F. ) ;
#934 = VERTEX_POINT ( 'NONE', #907 ) ;
#935 = DIRECTION ( 'NONE',  ( -1.000000000000000000, 0.0000000000000000000, 0.0000000000000000000 ) ) ;
#936 = AXIS2_PLACEMENT_3D ( 'NONE', #546, #639, #548 ) ;
#937 = VERTEX_POINT ( 'NONE', #796 ) ;
#938 = ORIENTED_EDGE ( 'NONE', *, *, #172, .T. ) ;
#939 = DIRECTION ( 'NONE',  ( 0.0000000000000000000, 0.0000000000000000000, -1.000000000000000000 ) ) ;
#940 = VECTOR ( 'NONE', #709, 39.37007874015748100 ) ;
#941 = CARTESIAN_POINT ( 'NONE',  ( -0.8724999999999999400, 0.07000000000000000700, -1.171500000000000000 ) ) ;
#942 = CARTESIAN_POINT ( 'NONE',  ( 0.8724999999999999400, 0.07000000000000000700, 1.222728428352864100 ) ) ;
#943 = VECTOR ( 'NONE', #561, 39.37007874015748100 ) ;
#944 = VECTOR ( 'NONE', #762, 39.37007874015748100 ) ;
#945 = PLANE ( 'NONE',  #1074 ) ;
#946 = EDGE_CURVE ( 'NONE', #1233, #383, #1001, .T. ) ;
#947 = DIRECTION ( 'NONE',  ( 0.0000000000000000000, 0.0000000000000000000, 1.000000000000000000 ) ) ;
#948 = DIRECTION ( 'NONE',  ( 0.0000000000000000000, 1.000000000000000000, 0.0000000000000000000 ) ) ;
#949 = ORIENTED_EDGE ( 'NONE', *, *, #1263, .T. ) ;
#950 = DIRECTION ( 'NONE',  ( 0.0000000000000000000, 1.000000000000000000, 0.0000000000000000000 ) ) ;
#951 = ORIENTED_EDGE ( 'NONE', *, *, #618, .F. ) ;
#952 = DIRECTION ( 'NONE',  ( 0.0000000000000000000, -0.0000000000000000000, 1.000000000000000000 ) ) ;
#953 = ORIENTED_EDGE ( 'NONE', *, *, #1199, .T. ) ;
#954 = AXIS2_PLACEMENT_3D ( 'NONE', #1151, #465, #376 ) ;
#955 = VECTOR ( 'NONE', #223, 39.37007874015748100 ) ;
#956 = LINE ( 'NONE', #766, #881 ) ;
#957 = ORIENTED_EDGE ( 'NONE', *, *, #1164, .F. ) ;
#958 = EDGE_CURVE ( 'NONE', #400, #432, #793, .T. ) ;
#959 = EDGE_CURVE ( 'NONE', #91, #138, #1268, .T. ) ;
#960 = CARTESIAN_POINT ( 'NONE',  ( -1.055000000000000200, 0.1000000000000000100, -1.373000000000000900 ) ) ;
#961 = DIRECTION ( 'NONE',  ( 0.0000000000000000000, 0.0000000000000000000, -1.000000000000000000 ) ) ;
#962 = AXIS2_PLACEMENT_3D ( 'NONE', #992, #679, #1185 ) ;
#963 = ORIENTED_EDGE ( 'NONE', *, *, #867, .F. ) ;
#964 = ORIENTED_EDGE ( 'NONE', *, *, #1008, .T. ) ;
#965 = LENGTH_MEASURE_WITH_UNIT ( LENGTH_MEASURE( 0.02539999999999999900 ), #659 );
#966 = VERTEX_POINT ( 'NONE', #1084 ) ;
#967 = ORIENTED_EDGE ( 'NONE', *, *, #797, .T. ) ;
#968 = CIRCLE ( 'NONE', #1127, 0.07499999999999988600 ) ;
#969 = DIRECTION ( 'NONE',  ( -0.0000000000000000000, 1.000000000000000000, -0.0000000000000000000 ) ) ;
#970 = FACE_OUTER_BOUND ( 'NONE', #997, .T. ) ;
#971 = AXIS2_PLACEMENT_3D ( 'NONE', #249, #643, #162 ) ;
#972 = CARTESIAN_POINT ( 'NONE',  ( -1.019999999999999800, 0.1600000000000000000, 1.282999999999999900 ) ) ;
#973 = LINE ( 'NONE', #749, #943 ) ;
#974 =( LENGTH_UNIT ( ) NAMED_UNIT ( * ) SI_UNIT ( $, .METRE. ) );
#975 = CARTESIAN_POINT ( 'NONE',  ( -0.9799999999999999800, 0.05000000000000000300, 1.372999999999999300 ) ) ;
#976 = EDGE_CURVE ( 'NONE', #567, #274, #1015, .T. ) ;
#977 = DIRECTION ( 'NONE',  ( 0.0000000000000000000, 1.000000000000000000, 0.0000000000000000000 ) ) ;
#978 = DIRECTION ( 'NONE',  ( 0.0000000000000000000, -1.000000000000000000, 0.0000000000000000000 ) ) ;
#979 = CARTESIAN_POINT ( 'NONE',  ( -1.005000000000000100, 0.05000000000000000300, -1.373000000000000900 ) ) ;
#980 = AXIS2_PLACEMENT_3D ( 'NONE', #217, #919, #1007 ) ;
#981 = APPLICATION_PROTOCOL_DEFINITION ( 'draft international standard', 'automotive_design', 1998, #760 ) ;
#982 = ORIENTED_EDGE ( 'NONE', *, *, #750, .F. ) ;
#983 = CARTESIAN_POINT ( 'NONE',  ( 0.9799999999999996500, 0.07000000000000000700, -1.283000000000000100 ) ) ;
#984 = ORIENTED_EDGE ( 'NONE', *, *, #264, .F. ) ;
#985 = FACE_OUTER_BOUND ( 'NONE', #1265, .T. ) ;
#986 = ORIENTED_EDGE ( 'NONE', *, *, #689, .F. ) ;
#987 = DIRECTION ( 'NONE',  ( -0.0000000000000000000, -1.000000000000000000, -0.0000000000000000000 ) ) ;
#988 = EDGE_CURVE ( 'NONE', #421, #893, #481, .T. ) ;
#989 = LINE ( 'NONE', #208, #955 ) ;
#990 = CARTESIAN_POINT ( 'NONE',  ( -0.9899999999999997700, 0.1600000000000000000, -1.312999999999999900 ) ) ;
#991 = FACE_OUTER_BOUND ( 'NONE', #1093, .T. ) ;
#992 = CARTESIAN_POINT ( 'NONE',  ( -0.8725000000000001600, -6.829619984160658000E-017, 1.171500000000000000 ) ) ;
#993 = VERTEX_POINT ( 'NONE', #399 ) ;
#994 = ORIENTED_EDGE ( 'NONE', *, *, #1047, .F. ) ;
#995 = DIRECTION ( 'NONE',  ( 0.0000000000000000000, 1.000000000000000000, 0.0000000000000000000 ) ) ;
#996 = ORIENTED_EDGE ( 'NONE', *, *, #25, .T. ) ;
#997 = EDGE_LOOP ( 'NONE', ( #725, #739, #515, #262 ) ) ;
#998 = ORIENTED_EDGE ( 'NONE', *, *, #38, .T. ) ;
#999 = AXIS2_PLACEMENT_3D ( 'NONE', #737, #830, #446 ) ;
#1000 = ORIENTED_EDGE ( 'NONE', *, *, #1234, .T. ) ;
#1001 = LINE ( 'NONE', #690, #528 ) ;
#1002 = DIRECTION ( 'NONE',  ( 0.0000000000000000000, -1.000000000000000000, 0.0000000000000000000 ) ) ;
#1003 = VECTOR ( 'NONE', #1134, 39.37007874015748100 ) ;
#1004 = CYLINDRICAL_SURFACE ( 'NONE', #884, 0.07499999999999988600 ) ;
#1005 = ADVANCED_FACE ( 'NONE', ( #589 ), #129, .F. ) ;
#1006 = AXIS2_PLACEMENT_3D ( 'NONE', #26, #418, #712 ) ;
#1007 = DIRECTION ( 'NONE',  ( 0.0000000000000000000, 0.0000000000000000000, -1.000000000000000000 ) ) ;
#1008 = EDGE_CURVE ( 'NONE', #1071, #386, #1208, .T. ) ;
#1009 = CARTESIAN_POINT ( 'NONE',  ( -1.005000000000000100, 0.05000000000000000300, -1.298000000000000900 ) ) ;
#1010 = CARTESIAN_POINT ( 'NONE',  ( -0.9799999999999999800, 0.1000000000000000100, 1.372999999999999300 ) ) ;
#1011 = DIRECTION ( 'NONE',  ( 0.0000000000000000000, 1.000000000000000000, 0.0000000000000000000 ) ) ;
#1012 = ORIENTED_EDGE ( 'NONE', *, *, #825, .T. ) ;
#1013 = LINE ( 'NONE', #1036, #46 ) ;
#1014 = VERTEX_POINT ( 'NONE', #10 ) ;
#1015 = LINE ( 'NONE', #1177, #649 ) ;
#1016 = FACE_OUTER_BOUND ( 'NONE', #165, .T. ) ;
#1017 = CARTESIAN_POINT ( 'NONE',  ( 0.9899999999999997700, 0.1000000000000000100, 1.312999999999999900 ) ) ;
#1018 = CYLINDRICAL_SURFACE ( 'NONE', #202, 0.07499999999999988600 ) ;
#1019 = AXIS2_PLACEMENT_3D ( 'NONE', #79, #477, #565 ) ;
#1020 = DIRECTION ( 'NONE',  ( -0.0000000000000000000, -1.000000000000000000, 0.0000000000000000000 ) ) ;
#1021 = EDGE_LOOP ( 'NONE', ( #640, #1050, #787, #142 ) ) ;
#1022 = EDGE_CURVE ( 'NONE', #1246, #138, #989, .T. ) ;
#1023 = ORIENTED_EDGE ( 'NONE', *, *, #602, .T. ) ;
#1024 = AXIS2_PLACEMENT_3D ( 'NONE', #741, #950, #1228 ) ;
#1025 = ORIENTED_EDGE ( 'NONE', *, *, #1216, .F. ) ;
#1026 = CARTESIAN_POINT ( 'NONE',  ( 0.9799999999999997600, 0.05000000000000000300, -1.298000000000000900 ) ) ;
#1027 = ORIENTED_EDGE ( 'NONE', *, *, #1102, .T. ) ;
#1028 = AXIS2_PLACEMENT_3D ( 'NONE', #299, #1273, #587 ) ;
#1029 = CONICAL_SURFACE ( 'NONE', #1088, 0.1120785000000000800, 0.7155849933176751100 ) ;
#1030 = LINE ( 'NONE', #443, #1225 ) ;
#1031 = LINE ( 'NONE', #596, #501 ) ;
#1032 = ORIENTED_EDGE ( 'NONE', *, *, #1080, .T. ) ;
#1033 = DIRECTION ( 'NONE',  ( 0.0000000000000000000, 1.000000000000000000, 0.0000000000000000000 ) ) ;
#1034 = CARTESIAN_POINT ( 'NONE',  ( -0.8725000000000001600, -6.829619984160658000E-017, 1.283578500000000000 ) ) ;
#1035 = AXIS2_PLACEMENT_3D ( 'NONE', #101, #120, #408 ) ;
#1036 = CARTESIAN_POINT ( 'NONE',  ( -0.9899999999999997700, 0.1600000000000000000, 1.312999999999999900 ) ) ;
#1037 = EDGE_LOOP ( 'NONE', ( #1245, #169, #984, #43 ) ) ;
#1038 = DIRECTION ( 'NONE',  ( -0.0000000000000000000, -0.0000000000000000000, 1.000000000000000000 ) ) ;
#1039 = CARTESIAN_POINT ( 'NONE',  ( -0.8725000000000001600, 0.07000000000000000700, 1.120271571647135900 ) ) ;
#1040 = DIRECTION ( 'NONE',  ( 9.948463196155364200E-017, 0.0000000000000000000, 1.000000000000000000 ) ) ;
#1041 = EDGE_LOOP ( 'NONE', ( #754, #102, #601, #646 ) ) ;
#1042 = VERTEX_POINT ( 'NONE', #118 ) ;
#1043 = DIRECTION ( 'NONE',  ( -0.0000000000000000000, 1.000000000000000000, -0.0000000000000000000 ) ) ;
#1044 = TOROIDAL_SURFACE ( 'NONE', #1019, 0.02499999999999999100, 0.05000000000000000300 ) ;
#1045 = CARTESIAN_POINT ( 'NONE',  ( 0.8724999999999999400, -6.829619984160658000E-017, 1.171500000000000000 ) ) ;
#1046 = ORIENTED_EDGE ( 'NONE', *, *, #331, .F. ) ;
#1047 = EDGE_CURVE ( 'NONE', #55, #3, #1178, .T. ) ;
#1048 = CARTESIAN_POINT ( 'NONE',  ( 1.019999999999999800, 0.1600000000000000000, 1.312999999999999900 ) ) ;
#1049 = DIRECTION ( 'NONE',  ( 0.0000000000000000000, 1.000000000000000000, 0.0000000000000000000 ) ) ;
#1050 = ORIENTED_EDGE ( 'NONE', *, *, #1238, .F. ) ;
#1051 = AXIS2_PLACEMENT_3D ( 'NONE', #149, #947, #863 ) ;
#1052 = VECTOR ( 'NONE', #756, 39.37007874015748100 ) ;
#1053 = DIRECTION ( 'NONE',  ( -1.000000000000000000, -0.0000000000000000000, -0.0000000000000000000 ) ) ;
#1054 = FACE_OUTER_BOUND ( 'NONE', #1123, .T. ) ;
#1055 = EDGE_CURVE ( 'NONE', #400, #752, #173, .T. ) ;
#1056 = DIRECTION ( 'NONE',  ( 0.0000000000000000000, 0.0000000000000000000, 1.000000000000000000 ) ) ;
#1057 = CARTESIAN_POINT ( 'NONE',  ( -0.9800000000000002000, 0.07000000000000000700, -1.283000000000000100 ) ) ;
#1058 = ORIENTED_EDGE ( 'NONE', *, *, #331, .T. ) ;
#1059 = ORIENTED_EDGE ( 'NONE', *, *, #618, .T. ) ;
#1060 = CARTESIAN_POINT ( 'NONE',  ( 0.9799999999999997600, 0.0000000000000000000, -1.298000000000000900 ) ) ;
#1061 = EDGE_CURVE ( 'NONE', #661, #539, #158, .T. ) ;
#1062 = ORIENTED_EDGE ( 'NONE', *, *, #261, .F. ) ;
#1063 = APPLICATION_PROTOCOL_DEFINITION ( 'draft international standard', 'automotive_design', 1998, #888 ) ;
#1064 = VECTOR ( 'NONE', #626, 39.37007874015748100 ) ;
#1065 = ORIENTED_EDGE ( 'NONE', *, *, #464, .T. ) ;
#1066 = LINE ( 'NONE', #518, #913 ) ;
#1067 = CARTESIAN_POINT ( 'NONE',  ( -0.9899999999999997700, 0.1000000000000000100, -1.282999999999999500 ) ) ;
#1068 = FACE_OUTER_BOUND ( 'NONE', #1075, .T. ) ;
#1069 = ORIENTED_EDGE ( 'NONE', *, *, #397, .F. ) ;
#1070 = AXIS2_PLACEMENT_3D ( 'NONE', #506, #1011, #608 ) ;
#1071 = VERTEX_POINT ( 'NONE', #415 ) ;
#1072 = ORIENTED_EDGE ( 'NONE', *, *, #324, .F. ) ;
#1073 = ADVANCED_FACE ( 'NONE', ( #1113 ), #706, .F. ) ;
#1074 = AXIS2_PLACEMENT_3D ( 'NONE', #1131, #181, #880 ) ;
#1075 = EDGE_LOOP ( 'NONE', ( #802, #82, #1109, #1023 ) ) ;
#1076 = DIRECTION ( 'NONE',  ( 0.0000000000000000000, 0.0000000000000000000, -1.000000000000000000 ) ) ;
#1077 = LINE ( 'NONE', #1124, #810 ) ;
#1078 = ORIENTED_EDGE ( 'NONE', *, *, #689, .T. ) ;
#1079 = CARTESIAN_POINT ( 'NONE',  ( -0.9799999999999999800, 0.1000000000000000100, 1.297999999999999400 ) ) ;
#1080 = EDGE_CURVE ( 'NONE', #214, #55, #322, .T. ) ;
#1081 = LINE ( 'NONE', #816, #558 ) ;
#1082 = EDGE_CURVE ( 'NONE', #1203, #3, #1081, .T. ) ;
#1083 = VECTOR ( 'NONE', #1148, 39.37007874015748100 ) ;
#1084 = CARTESIAN_POINT ( 'NONE',  ( 1.054999999999999900, 0.05000000000000000300, 1.297999999999999200 ) ) ;
#1085 = ADVANCED_FACE ( 'NONE', ( #295 ), #236, .T. ) ;
#1086 = ORIENTED_EDGE ( 'NONE', *, *, #527, .F. ) ;
#1087 = CARTESIAN_POINT ( 'NONE',  ( 1.004999999999999700, 0.05000000000000000300, -1.298000000000000900 ) ) ;
#1088 = AXIS2_PLACEMENT_3D ( 'NONE', #890, #901, #288 ) ;
#1089 = CARTESIAN_POINT ( 'NONE',  ( 0.9799999999999997600, 0.1000000000000000100, -1.298000000000000900 ) ) ;
#1090 = ADVANCED_FACE ( 'NONE', ( #758 ), #1252, .T. ) ;
#1091 = DIRECTION ( 'NONE',  ( 0.0000000000000000000, -1.000000000000000000, 0.0000000000000000000 ) ) ;
#1092 =( GEOMETRIC_REPRESENTATION_CONTEXT ( 3 ) GLOBAL_UNCERTAINTY_ASSIGNED_CONTEXT ( ( #195 ) ) GLOBAL_UNIT_ASSIGNED_CONTEXT ( ( #929, #239, #924 ) ) REPRESENTATION_CONTEXT ( 'NONE', 'WORKASPACE' ) );
#1093 = EDGE_LOOP ( 'NONE', ( #1138, #889, #92, #1232 ) ) ;
#1094 = ORIENTED_EDGE ( 'NONE', *, *, #530, .T. ) ;
#1095 = ORIENTED_EDGE ( 'NONE', *, *, #669, .F. ) ;
#1096 = VERTEX_POINT ( 'NONE', #412 ) ;
#1097 = CARTESIAN_POINT ( 'NONE',  ( -0.9799999999999999800, 0.05000000000000000300, 1.297999999999999400 ) ) ;
#1098 = ORIENTED_EDGE ( 'NONE', *, *, #1144, .T. ) ;
#1099 = ADVANCED_FACE ( 'NONE', ( #496 ), #1223, .T. ) ;
#1100 = CIRCLE ( 'NONE', #1247, 0.07500000000000002500 ) ;
#1101 = FACE_OUTER_BOUND ( 'NONE', #16, .T. ) ;
#1102 = EDGE_CURVE ( 'NONE', #539, #403, #206, .T. ) ;
#1103 = LINE ( 'NONE', #1240, #852 ) ;
#1104 = CARTESIAN_POINT ( 'NONE',  ( -0.9899999999999997700, 0.1600000000000000000, -1.282999999999999500 ) ) ;
#1105 = DIRECTION ( 'NONE',  ( 0.0000000000000000000, -1.000000000000000000, 0.0000000000000000000 ) ) ;
#1106 = EDGE_CURVE ( 'NONE', #57, #400, #968, .T. ) ;
#1107 = EDGE_CURVE ( 'NONE', #65, #752, #466, .T. ) ;
#1108 = ORIENTED_EDGE ( 'NONE', *, *, #462, .T. ) ;
#1109 = ORIENTED_EDGE ( 'NONE', *, *, #750, .T. ) ;
#1110 = CARTESIAN_POINT ( 'NONE',  ( -1.004999999999999900, 0.0000000000000000000, 1.297999999999999400 ) ) ;
#1111 = CIRCLE ( 'NONE', #616, 0.1120785000000000800 ) ;
#1112 = ORIENTED_EDGE ( 'NONE', *, *, #513, .F. ) ;
#1113 = FACE_OUTER_BOUND ( 'NONE', #715, .T. ) ;
#1114 = CARTESIAN_POINT ( 'NONE',  ( 0.8725000000000001600, 0.07000000000000000700, -1.222728428352864100 ) ) ;
#1115 = COLOUR_RGB ( '',0.7529411764705882200, 0.7529411764705882200, 0.7529411764705882200 ) ;
#1116 = ORIENTED_EDGE ( 'NONE', *, *, #878, .F. ) ;
#1117 = AXIS2_PLACEMENT_3D ( 'NONE', #148, #228, #521 ) ;
#1118 = EDGE_CURVE ( 'NONE', #335, #65, #1142, .T. ) ;
#1119 = CARTESIAN_POINT ( 'NONE',  ( 0.8725000000000001600, 0.07000000000000000700, -1.171500000000000000 ) ) ;
#1120 = DIRECTION ( 'NONE',  ( 0.0000000000000000000, 0.0000000000000000000, 1.000000000000000000 ) ) ;
#1121 = EDGE_LOOP ( 'NONE', ( #216, #1069 ) ) ;
#1122 = DIRECTION ( 'NONE',  ( 0.0000000000000000000, 1.000000000000000000, 0.0000000000000000000 ) ) ;
#1123 = EDGE_LOOP ( 'NONE', ( #827, #1116, #1095, #352 ) ) ;
#1124 = CARTESIAN_POINT ( 'NONE',  ( -0.9800000000000002000, 0.07000000000000000700, -1.283000000000000100 ) ) ;
#1125 = ORIENTED_EDGE ( 'NONE', *, *, #579, .T. ) ;
#1126 = EDGE_LOOP ( 'NONE', ( #714, #570, #309, #964, #859, #524, #522, #784 ) ) ;
#1127 = AXIS2_PLACEMENT_3D ( 'NONE', #517, #516, #1204 ) ;
#1128 = FILL_AREA_STYLE_COLOUR ( '', #1115 ) ;
#1129 = LENGTH_MEASURE_WITH_UNIT ( LENGTH_MEASURE( 0.02539999999999999900 ), #974 );
#1130 = LINE ( 'NONE', #471, #798 ) ;
#1131 = CARTESIAN_POINT ( 'NONE',  ( -0.9799999999999999800, 0.07000000000000000700, 1.282999999999999700 ) ) ;
#1132 = EDGE_CURVE ( 'NONE', #1249, #41, #451, .T. ) ;
#1133 = EDGE_LOOP ( 'NONE', ( #108, #614, #998, #1072 ) ) ;
#1134 = DIRECTION ( 'NONE',  ( 0.0000000000000000000, -1.000000000000000000, 0.0000000000000000000 ) ) ;
#1135 = DIRECTION ( 'NONE',  ( -0.0000000000000000000, -1.000000000000000000, -0.0000000000000000000 ) ) ;
#1136 = DIRECTION ( 'NONE',  ( 0.0000000000000000000, 0.0000000000000000000, -1.000000000000000000 ) ) ;
#1137 = CARTESIAN_POINT ( 'NONE',  ( -0.8725000000000001600, -6.829619984160658000E-017, 1.171500000000000000 ) ) ;
#1138 = ORIENTED_EDGE ( 'NONE', *, *, #396, .T. ) ;
#1139 = VERTEX_POINT ( 'NONE', #11 ) ;
#1140 = CIRCLE ( 'NONE', #794, 0.05122842835286414700 ) ;
#1141 = ORIENTED_EDGE ( 'NONE', *, *, #988, .T. ) ;
#1142 = LINE ( 'NONE', #620, #512 ) ;
#1143 = CARTESIAN_POINT ( 'NONE',  ( -0.9800000000000002000, 0.1000000000000000100, -1.298000000000000900 ) ) ;
#1144 = EDGE_CURVE ( 'NONE', #156, #425, #701, .T. ) ;
#1145 = CARTESIAN_POINT ( 'NONE',  ( 0.8724999999999999400, -6.829619984160658000E-017, 1.059421499999999800 ) ) ;
#1146 = ORIENTED_EDGE ( 'NONE', *, *, #447, .T. ) ;
#1147 = EDGE_CURVE ( 'NONE', #645, #757, #59, .T. ) ;
#1148 = DIRECTION ( 'NONE',  ( 8.034405899049453800E-017, -0.7547095802227720100, 0.6560590289905072800 ) ) ;
#1149 = DIRECTION ( 'NONE',  ( -0.0000000000000000000, -1.000000000000000000, -0.0000000000000000000 ) ) ;
#1150 = FILL_AREA_STYLE_COLOUR ( '', #406 ) ;
#1151 = CARTESIAN_POINT ( 'NONE',  ( 0.9799999999999997600, 0.1000000000000000100, -1.298000000000000900 ) ) ;
#1152 = DIRECTION ( 'NONE',  ( 0.0000000000000000000, 0.0000000000000000000, 1.000000000000000000 ) ) ;
#1153 = EDGE_LOOP ( 'NONE', ( #419, #911, #509, #307 ) ) ;
#1154 = DIRECTION ( 'NONE',  ( 0.0000000000000000000, 0.0000000000000000000, -1.000000000000000000 ) ) ;
#1155 = ORIENTED_EDGE ( 'NONE', *, *, #1022, .F. ) ;
#1156 = AXIS2_PLACEMENT_3D ( 'NONE', #648, #259, #354 ) ;
#1157 = CIRCLE ( 'NONE', #1188, 0.1120785000000000800 ) ;
#1158 = CARTESIAN_POINT ( 'NONE',  ( 0.8724999999999999400, -6.829619984160658000E-017, 1.283578500000000000 ) ) ;
#1159 = LINE ( 'NONE', #427, #175 ) ;
#1160 = DIRECTION ( 'NONE',  ( -0.0000000000000000000, -1.000000000000000000, -0.0000000000000000000 ) ) ;
#1161 = VECTOR ( 'NONE', #654, 39.37007874015748100 ) ;
#1162 = ADVANCED_FACE ( 'NONE', ( #829 ), #1215, .F. ) ;
#1163 = VERTEX_POINT ( 'NONE', #1114 ) ;
#1164 = EDGE_CURVE ( 'NONE', #1096, #539, #573, .T. ) ;
#1165 = CARTESIAN_POINT ( 'NONE',  ( -0.8725000000000001600, -6.829619984160658000E-017, 1.059421499999999800 ) ) ;
#1166 = CARTESIAN_POINT ( 'NONE',  ( 0.9799999999999997600, 0.1000000000000000100, -1.373000000000000900 ) ) ;
#1167 = DIRECTION ( 'NONE',  ( 1.000000000000000000, 0.0000000000000000000, 0.0000000000000000000 ) ) ;
#1168 = AXIS2_PLACEMENT_3D ( 'NONE', #4, #995, #685 ) ;
#1169 = CARTESIAN_POINT ( 'NONE',  ( -0.8725000000000001600, -6.829619984160658000E-017, 1.171500000000000000 ) ) ;
#1170 = ORIENTED_EDGE ( 'NONE', *, *, #38, .F. ) ;
#1171 = EDGE_CURVE ( 'NONE', #993, #1042, #1077, .T. ) ;
#1172 = ORIENTED_EDGE ( 'NONE', *, *, #119, .T. ) ;
#1173 = DIRECTION ( 'NONE',  ( 0.0000000000000000000, 0.0000000000000000000, 1.000000000000000000 ) ) ;
#1174 = EDGE_CURVE ( 'NONE', #1203, #214, #355, .T. ) ;
#1175 = ORIENTED_EDGE ( 'NONE', *, *, #622, .T. ) ;
#1176 = UNCERTAINTY_MEASURE_WITH_UNIT (LENGTH_MEASURE( 1.000000000000000100E-005 ), #885, 'distance_accuracy_value', 'NONE');
#1177 = CARTESIAN_POINT ( 'NONE',  ( -1.005000000000000100, 0.0000000000000000000, 9.998205512136140600E-017 ) ) ;
#1178 = CIRCLE ( 'NONE', #68, 0.1120785000000000800 ) ;
#1179 = ADVANCED_FACE ( 'NONE', ( #155 ), #1205, .F. ) ;
#1180 = CARTESIAN_POINT ( 'NONE',  ( -1.019999999999999800, 0.1600000000000000000, 1.312999999999999900 ) ) ;
#1181 = LINE ( 'NONE', #738, #340 ) ;
#1182 = ORIENTED_EDGE ( 'NONE', *, *, #1055, .T. ) ;
#1183 = DIRECTION ( 'NONE',  ( 0.0000000000000000000, -1.000000000000000000, 0.0000000000000000000 ) ) ;
#1184 = DIMENSIONAL_EXPONENTS ( 1.000000000000000000, 0.0000000000000000000, 0.0000000000000000000, 0.0000000000000000000, 0.0000000000000000000, 0.0000000000000000000, 0.0000000000000000000 ) ;
#1185 = DIRECTION ( 'NONE',  ( 0.0000000000000000000, 0.0000000000000000000, -1.000000000000000000 ) ) ;
#1186 = DIRECTION ( 'NONE',  ( 0.0000000000000000000, 1.000000000000000000, 0.0000000000000000000 ) ) ;
#1187 = ORIENTED_EDGE ( 'NONE', *, *, #264, .T. ) ;
#1188 = AXIS2_PLACEMENT_3D ( 'NONE', #1169, #1160, #270 ) ;
#1189 = EDGE_LOOP ( 'NONE', ( #1025, #619 ) ) ;
#1190 = DIRECTION ( 'NONE',  ( -0.0000000000000000000, -1.000000000000000000, -0.0000000000000000000 ) ) ;
#1191 = CARTESIAN_POINT ( 'NONE',  ( 1.054999999999999900, 0.1000000000000000100, 1.297999999999999200 ) ) ;
#1192 = FACE_BOUND ( 'NONE', #314, .T. ) ;
#1193 = SHAPE_DEFINITION_REPRESENTATION ( #230, #1243 ) ;
#1194 = EDGE_CURVE ( 'NONE', #484, #906, #1013, .T. ) ;
#1195 = LINE ( 'NONE', #960, #131 ) ;
#1196 = TOROIDAL_SURFACE ( 'NONE', #500, 0.02499999999999999100, 0.05000000000000000300 ) ;
#1197 = DIRECTION ( 'NONE',  ( 1.064632889191061500E-016, 0.0000000000000000000, 1.000000000000000000 ) ) ;
#1198 = TOROIDAL_SURFACE ( 'NONE', #936, 0.02499999999999999100, 0.05000000000000000300 ) ;
#1199 = EDGE_CURVE ( 'NONE', #1042, #74, #912, .T. ) ;
#1200 = CARTESIAN_POINT ( 'NONE',  ( -1.055000000000000200, 0.1000000000000000100, -1.373000000000000900 ) ) ;
#1201 = ORIENTED_EDGE ( 'NONE', *, *, #1174, .F. ) ;
#1202 = DIRECTION ( 'NONE',  ( 0.0000000000000000000, 0.0000000000000000000, -1.000000000000000000 ) ) ;
#1203 = VERTEX_POINT ( 'NONE', #445 ) ;
#1204 = DIRECTION ( 'NONE',  ( 0.0000000000000000000, 0.0000000000000000000, 1.000000000000000000 ) ) ;
#1205 = CONICAL_SURFACE ( 'NONE', #999, 0.1120785000000000800, 0.7155849933176751100 ) ;
#1206 = ORIENTED_EDGE ( 'NONE', *, *, #422, .F. ) ;
#1207 = DIRECTION ( 'NONE',  ( 0.0000000000000000000, 0.0000000000000000000, 1.000000000000000000 ) ) ;
#1208 = CIRCLE ( 'NONE', #1006, 0.02999999999999995400 ) ;
#1209 = FACE_OUTER_BOUND ( 'NONE', #171, .T. ) ;
#1210 = LINE ( 'NONE', #1048, #132 ) ;
#1211 = DIRECTION ( 'NONE',  ( 0.0000000000000000000, 0.0000000000000000000, -1.000000000000000000 ) ) ;
#1212 = PLANE ( 'NONE',  #612 ) ;
#1213 = MECHANICAL_DESIGN_GEOMETRIC_PRESENTATION_REPRESENTATION (  '', ( #241 ), #395 ) ;
#1214 = EDGE_CURVE ( 'NONE', #1249, #374, #17, .T. ) ;
#1215 = PLANE ( 'NONE',  #1117 ) ;
#1216 = EDGE_CURVE ( 'NONE', #425, #156, #1111, .T. ) ;
#1217 = CARTESIAN_POINT ( 'NONE',  ( 1.019999999999999800, 0.1600000000000000000, 1.312999999999999900 ) ) ;
#1218 = CARTESIAN_POINT ( 'NONE',  ( 0.9899999999999997700, 0.1600000000000000000, 1.312999999999999900 ) ) ;
#1219 = ORIENTED_EDGE ( 'NONE', *, *, #64, .F. ) ;
#1220 = AXIS2_PLACEMENT_3D ( 'NONE', #90, #1183, #1076 ) ;
#1221 = ORIENTED_EDGE ( 'NONE', *, *, #157, .T. ) ;
#1222 = DIRECTION ( 'NONE',  ( 0.0000000000000000000, -1.000000000000000000, 0.0000000000000000000 ) ) ;
#1223 = CYLINDRICAL_SURFACE ( 'NONE', #115, 0.02999999999999995400 ) ;
#1224 = DIRECTION ( 'NONE',  ( -0.0000000000000000000, -1.000000000000000000, -0.0000000000000000000 ) ) ;
#1225 = VECTOR ( 'NONE', #719, 39.37007874015748100 ) ;
#1226 = CONICAL_SURFACE ( 'NONE', #305, 0.1120785000000000800, 0.7155849933176751100 ) ;
#1227 = CARTESIAN_POINT ( 'NONE',  ( 0.9799999999999999800, 0.1600000000000000000, 1.282999999999999700 ) ) ;
#1228 = DIRECTION ( 'NONE',  ( 0.0000000000000000000, 0.0000000000000000000, 1.000000000000000000 ) ) ;
#1229 = DIRECTION ( 'NONE',  ( 0.0000000000000000000, 1.000000000000000000, 0.0000000000000000000 ) ) ;
#1230 = ORIENTED_EDGE ( 'NONE', *, *, #958, .F. ) ;
#1231 = DIRECTION ( 'NONE',  ( 0.0000000000000000000, 0.0000000000000000000, -1.000000000000000000 ) ) ;
#1232 = ORIENTED_EDGE ( 'NONE', *, *, #976, .F. ) ;
#1233 = VERTEX_POINT ( 'NONE', #39 ) ;
#1234 = EDGE_CURVE ( 'NONE', #65, #57, #385, .T. ) ;
#1235 = CYLINDRICAL_SURFACE ( 'NONE', #1220, 0.07500000000000002500 ) ;
#1236 = DIRECTION ( 'NONE',  ( 0.0000000000000000000, 0.0000000000000000000, -1.000000000000000000 ) ) ;
#1237 = VECTOR ( 'NONE', #682, 39.37007874015748100 ) ;
#1238 = EDGE_CURVE ( 'NONE', #386, #711, #291, .T. ) ;
#1239 = VERTEX_POINT ( 'NONE', #851 ) ;
#1240 = CARTESIAN_POINT ( 'NONE',  ( 1.054999999999999700, 0.05000000000000000300, -1.373000000000000900 ) ) ;
#1241 = ORIENTED_EDGE ( 'NONE', *, *, #1061, .F. ) ;
#1242 = DIRECTION ( 'NONE',  ( 0.0000000000000000000, 0.0000000000000000000, 1.000000000000000000 ) ) ;
#1243 = ADVANCED_BREP_SHAPE_REPRESENTATION ( 'Cover Bottom', ( #540, #837 ), #196 ) ;
#1244 = EDGE_CURVE ( 'NONE', #1163, #693, #1140, .T. ) ;
#1245 = ORIENTED_EDGE ( 'NONE', *, *, #686, .T. ) ;
#1246 = VERTEX_POINT ( 'NONE', #1039 ) ;
#1247 = AXIS2_PLACEMENT_3D ( 'NONE', #1143, #551, #1242 ) ;
#1248 = ORIENTED_EDGE ( 'NONE', *, *, #447, .F. ) ;
#1249 = VERTEX_POINT ( 'NONE', #237 ) ;
#1250 = DIRECTION ( 'NONE',  ( 0.0000000000000000000, 0.0000000000000000000, 1.000000000000000000 ) ) ;
#1251 = ORIENTED_EDGE ( 'NONE', *, *, #1238, .T. ) ;
#1252 = CYLINDRICAL_SURFACE ( 'NONE', #980, 0.02999999999999995400 ) ;
#1253 = AXIS2_PLACEMENT_3D ( 'NONE', #869, #179, #1257 ) ;
#1254 = LINE ( 'NONE', #1057, #879 ) ;
#1255 = DIRECTION ( 'NONE',  ( -0.0000000000000000000, -1.000000000000000000, -0.0000000000000000000 ) ) ;
#1256 = CYLINDRICAL_SURFACE ( 'NONE', #166, 0.05000000000000001000 ) ;
#1257 = DIRECTION ( 'NONE',  ( 0.0000000000000000000, 0.0000000000000000000, -1.000000000000000000 ) ) ;
#1258 = CARTESIAN_POINT ( 'NONE',  ( -0.9800000000000002000, 0.05000000000000000300, -1.373000000000000900 ) ) ;
#1259 = AXIS2_PLACEMENT_3D ( 'NONE', #543, #1043, #1231 ) ;
#1260 = CARTESIAN_POINT ( 'NONE',  ( -0.9800000000000002000, 0.05000000000000000300, -1.298000000000000900 ) ) ;
#1261 = ADVANCED_FACE ( 'NONE', ( #985 ), #945, .F. ) ;
#1262 = CARTESIAN_POINT ( 'NONE',  ( -0.9799999999999999800, 0.07000000000000000700, 1.282999999999999700 ) ) ;
#1263 = EDGE_CURVE ( 'NONE', #138, #91, #1157, .T. ) ;
#1264 = DIRECTION ( 'NONE',  ( -0.0000000000000000000, -1.000000000000000000, -0.0000000000000000000 ) ) ;
#1265 = EDGE_LOOP ( 'NONE', ( #828, #1241, #111, #967 ) ) ;
#1266 = ORIENTED_EDGE ( 'NONE', *, *, #88, .F. ) ;
#1267 = VERTEX_POINT ( 'NONE', #990 ) ;
#1268 = CIRCLE ( 'NONE', #962, 0.1120785000000000800 ) ;
#1269 = CIRCLE ( 'NONE', #606, 0.05000000000000001000 ) ;
#1270 = LINE ( 'NONE', #372, #745 ) ;
#1271 = DIRECTION ( 'NONE',  ( -1.000000000000000000, 0.0000000000000000000, 0.0000000000000000000 ) ) ;
#1272 = ADVANCED_FACE ( 'NONE', ( #635 ), #772, .F. ) ;
#1273 = DIRECTION ( 'NONE',  ( -0.0000000000000000000, -1.000000000000000000, -0.0000000000000000000 ) ) ;
#1274 = CARTESIAN_POINT ( 'NONE',  ( -1.019999999999999800, 0.1000000000000000100, -1.282999999999999500 ) ) ;
#1275 = EDGE_CURVE ( 'NONE', #1267, #421, #30, .T. ) ;
ENDSEC;
END-ISO-10303-21;
